<svg width="39" height="37" viewBox="0 0 39 37" fill="none" xmlns="http://www.w3.org/2000/svg">
<path d="M26.0237 8.22779C29.0278 7.8619 32.0319 7.47771 35.0539 7.14841C37.5394 6.87399 38.8626 8.08143 38.809 10.6976C38.7553 14.3382 38.6123 17.9605 38.505 21.6012C38.4335 24.016 38.344 26.4126 38.2725 28.8275C38.2189 30.2545 37.5036 30.6936 36.2698 29.9618C33.4803 28.3519 30.6908 26.7053 27.9192 25.0771C26.5781 24.2905 26.131 22.8818 26.0953 21.4914C25.9522 17.119 26.0237 12.7466 26.0237 8.22779Z" fill="#051B34"/>
<path d="M11.4867 25.7909C8.48264 26.3763 5.51432 26.98 2.52812 27.4923C1.45523 27.6752 1.25854 26.7971 1.24065 25.9738C1.15125 23.7419 1.0976 21.51 1.02608 19.278C0.918788 15.4727 0.829381 11.6674 0.739974 7.86217C0.722092 7.47798 0.722092 7.0755 0.739974 6.69131C0.883025 4.56913 1.38371 4.27642 3.22549 5.22774C4.83482 6.051 6.37263 7.02061 8.05348 7.66093C10.5569 8.59395 11.2543 10.5881 11.4331 12.9847C11.5046 13.8994 11.4867 14.8141 11.4867 15.7471C11.4867 19.0219 11.4867 22.2966 11.4867 25.7909Z" fill="#FF004E"/>
<path d="M14.3469 27.8947C17.655 27.3642 20.8379 26.2848 24.1817 26.8336C24.8433 26.9434 25.5407 27.0897 26.1308 27.4007C28.7057 28.7911 31.2449 30.2181 33.7483 31.7183C34.1953 31.9927 34.4636 32.5964 34.8212 33.0355C34.3384 33.3648 33.8735 33.8953 33.337 33.9868C28.2587 34.993 23.1804 35.9443 18.0842 36.8408C15.8848 37.225 14.4006 35.9626 14.3469 33.6941C14.3112 31.828 14.3469 29.9437 14.3469 27.8947Z" fill="#051B34"/>
<path d="M23.0379 8.59392C23.0379 12.6553 23.1094 16.4972 23.0021 20.3391C22.9485 22.1868 21.3928 23.815 19.6404 24.1992C17.9238 24.5651 16.2072 24.8578 14.276 25.2237C14.276 24.0163 14.276 22.9003 14.276 21.7843C14.2581 19.2963 14.2402 16.7899 14.2402 14.3018C14.2402 11.1552 15.6171 9.52695 18.657 9.10617C20.0696 8.92322 21.4643 8.77687 23.0379 8.59392Z" fill="#FF004E"/>
<path d="M3.2793 1.97125C4.6204 1.75171 5.69329 1.51388 6.76618 1.40411C11.5405 0.928454 16.3149 0.471088 21.0713 0.0320167C22.7343 -0.11434 23.0383 0.196668 23.0562 1.89807C23.0562 3.21528 23.0562 4.5142 23.0562 5.68506C15.9036 8.15484 9.55568 6.30708 3.2793 1.97125Z" fill="#FF004E"/>
<path d="M3.13672 29.9987C6.15868 29.4316 8.76937 28.9376 11.5231 28.4071C11.5231 30.6207 11.6304 32.7429 11.4874 34.8468C11.3801 36.1823 10.6648 36.4018 9.66344 35.6152C7.80378 34.1333 5.97987 32.6514 4.15596 31.133C3.88774 30.8952 3.67316 30.5842 3.13672 29.9987Z" fill="#051B34"/>
<path d="M36.5208 4.40448C32.9266 4.84355 29.4576 5.26433 25.7382 5.7217C25.7382 4.14836 25.7025 2.75797 25.7561 1.36758C25.774 0.617499 26.221 0.178428 26.9542 0.434553C30.0656 1.53223 33.159 2.6665 36.2525 3.80076C36.3062 3.83735 36.3241 3.96541 36.5208 4.40448Z" fill="#2D2D2D"/>
</svg>
