<svg width="49" height="35" viewBox="0 0 49 35" fill="none" xmlns="http://www.w3.org/2000/svg">
<g clip-path="url(#clip0_89_3172)">
<path d="M10.6366 29.2664C11.0645 20.3201 14.2752 12.9531 22.0714 8.01979C22.0082 7.9663 21.945 7.91159 21.883 7.8581C21.1815 8.13406 20.4594 8.36626 19.7822 8.69206C17.2305 9.91991 14.945 11.5137 13.0801 13.6727C10.7083 16.419 9.25072 19.6223 8.47876 23.1308C8.04233 25.1124 7.79433 27.1353 7.45029 29.2129C6.35981 29.2129 5.14048 29.2129 3.92114 29.2129C2.92427 19.9907 9.12308 8.18147 21.9814 6.35429C21.1317 5.36107 20.7609 4.26817 21.1013 2.99899C21.3031 2.24526 21.7152 1.63863 22.3352 1.17789C23.6579 0.194393 25.451 0.267335 26.6278 1.33957C28.0708 2.65495 28.1389 4.21833 26.8551 6.31296C27.993 6.58284 29.1552 6.79559 30.2773 7.1372C33.1147 7.99912 35.6288 9.44458 37.8437 11.4274C40.4368 13.7493 42.3114 16.5576 43.5526 19.7901C44.6759 22.715 45.0552 25.7603 44.9349 28.8822C44.9178 29.326 44.6893 29.3029 44.389 29.3029C42.2628 29.2992 40.1353 29.3029 38.0091 29.3004C29.0774 29.2907 20.1445 29.2786 11.2128 29.2676C11.0341 29.2664 10.8554 29.2664 10.6366 29.2664Z" fill="#FF004E"/>
<path d="M0.0908203 34.7577C0.0908203 33.339 0.0908203 31.9689 0.0908203 30.5587C16.2777 30.5587 32.4476 30.5587 48.6625 30.5587C48.6625 31.9421 48.6625 33.3268 48.6625 34.7577C32.4817 34.7577 16.3166 34.7577 0.0908203 34.7577Z" fill="#051B34"/>
</g>
<defs>
<clipPath id="clip0_89_3172">
<rect width="48.5717" height="34.2727" fill="white" transform="translate(0.0908203 0.484848)"/>
</clipPath>
</defs>
</svg>
