<svg width="59" height="56" viewBox="0 0 59 56" fill="none" xmlns="http://www.w3.org/2000/svg">
<path d="M58.5694 31.1281L58.5584 31.2413C58.4954 35.6808 58.5594 38.2644 58.5 42.9441C58.479 43.577 58.4799 44.2172 58.2845 44.83C57.9876 45.7597 57.3191 46.1132 56.3666 45.862C55.7812 45.7077 55.2734 45.3844 54.7555 45.0912C50.7316 42.8089 46.7324 40.481 42.682 38.2453C40.5157 37.0498 39.5613 35.2031 39.4709 32.8523C39.2179 26.2858 39.3567 19.7148 39.3366 13.1465C39.3357 12.7538 39.6289 12.4222 40.0198 12.3775C43.5487 11.9747 47.0767 11.5601 50.6056 11.1537C51.8477 11.0103 53.0851 10.8185 54.3382 10.7911C57.4223 10.7226 58.5173 12.3583 58.5603 15.4543C58.5922 17.7503 58.6087 20.1267 58.5603 22.4227C58.5347 23.6172 58.5785 24.7515 58.5603 25.9461C58.542 27.1407 58.5603 28.3152 58.5603 29.5097C58.5594 29.949 58.5977 30.9591 58.5694 31.1281Z" fill="#01F1EA"/>
<path d="M0.688979 21.672C0.688066 21.6692 0.686239 21.6656 0.686239 21.6628C0.686239 18.5832 0.686239 16.3201 0.686239 11.6505C0.686239 10.908 0.686239 8.63122 0.686239 7.43756C0.686239 6.49414 1.46253 6.26308 2.74843 6.86402C4.06355 7.30514 9.75329 10.1765 11.6894 10.9263C14.4896 12.0104 15.7892 14.2579 16.4641 17.0836C16.6476 17.8526 16.6787 18.2755 16.6805 19.6582C16.6814 20.4427 16.6604 32.1619 16.6805 37.637C16.6823 38.1402 16.5244 38.2854 16.0476 38.374C11.736 39.175 7.43356 40.0243 3.10826 40.7522C1.40225 41.039 0.65884 40.5029 0.66706 38.7266C0.685325 34.8433 0.732817 32.8505 0.685326 28.9572C0.67254 27.9124 0.685326 25.0602 0.685326 24.0145C0.651535 24.0136 0.718204 21.7834 0.688979 21.672Z" fill="#FE014E"/>
<path d="M20.9785 42.6938C20.9775 42.4463 21.1364 42.2664 21.447 42.2171C24.2653 41.7687 27.039 41.0746 29.8702 40.6938C32.7251 40.3093 35.569 40.2663 38.3628 41.091C39.9318 41.5541 41.2944 42.4692 42.7182 43.2363C45.5073 44.7396 48.2536 46.3223 51.0345 47.8411C51.9332 48.4621 52.62 48.4539 52.5341 49.8741C52.4629 51.0467 51.7953 51.0485 49.7915 51.5737C47.6919 52.0422 47.6015 52.0121 46.1923 52.3354C40.3382 53.3875 37.2869 54.0194 31.4319 55.0706C29.7076 55.3802 27.9924 55.783 26.2435 55.9099C23.2799 56.1246 21.2397 54.33 20.9775 51.37C21.0113 49.6887 20.9821 44.1323 20.9785 42.6938Z" fill="white"/>
<path d="M34.6839 22.1916C34.7451 24.8264 34.588 27.4621 34.6574 30.0933C34.7497 33.6177 31.9295 36.1876 29.1467 36.6863C26.5758 37.1466 24.0086 37.6297 21.4423 38.1183C21.0861 38.1859 20.9893 38.0964 20.9884 37.7393C20.9811 32.1528 20.96 26.568 20.9774 20.9815C20.982 19.3942 21.329 17.8654 22.2916 16.5448C23.4177 14.9986 25.0269 14.2223 26.8397 13.9355C29.0088 13.5912 29.6901 13.5428 31.839 13.2844C31.8573 13.2825 33.3222 13.1364 33.3414 13.1346C33.9113 13.0698 34.4054 12.9848 34.578 13.331C34.6903 13.5556 34.6574 13.9018 34.6574 14.3502C34.6647 16.964 34.6839 19.576 34.6839 22.1916Z" fill="#FE014E"/>
<path d="M5.86594 4.26391C5.3819 3.99632 5.21477 3.0529 6.44313 2.89581C8.37015 2.64923 9.7419 2.49762 9.7419 2.49762C9.7419 2.49762 16.2207 1.74051 19.7341 1.33502C23.2466 1.00898 26.7591 0.488405 30.2724 0.168756C31.1455 0.089301 32.0186 -0.0394717 32.8972 0.011672C34.0662 0.080168 34.5082 0.533156 34.6388 1.69485C34.6398 1.70307 34.6407 1.71129 34.6407 1.71951C34.6644 2.73325 34.6644 4.74429 34.6644 4.74429C34.6644 4.74429 34.6644 7.0138 34.6644 8.10973C34.6754 8.51888 34.5968 8.66866 34.2078 8.79195C27.1372 11.0368 20.1652 10.7327 13.2754 8.03119C10.1428 6.80283 5.86776 4.26482 5.86594 4.26391Z" fill="#FE014E"/>
<path d="M3.89534 45.9543C3.73826 45.7342 3.86703 45.4246 4.13371 45.3752C5.1922 45.1789 6.20229 44.9908 7.21146 44.8044C10.1449 44.262 13.0793 43.7231 16.0128 43.1779C16.7014 43.05 16.6959 43.0418 16.7005 43.7569C16.7187 46.5945 16.8557 49.4311 16.6904 52.2687C16.6822 52.4038 16.674 52.539 16.663 52.6733C16.547 54.1035 14.8858 54.8441 13.7569 53.9592C13.7506 53.9546 13.7451 53.95 13.7387 53.9455C10.9696 51.7627 9.43622 50.5554 6.6708 48.3672C6.30914 48.0064 4.26339 46.4675 3.89534 45.9543Z" fill="white"/>
<path d="M55.0597 5.69684C55.5337 5.98544 55.3675 6.71332 54.8168 6.77908C53.5483 6.93068 52.2797 7.08229 51.0121 7.23298C47.3617 7.6677 43.7104 8.09329 40.0619 8.54171C38.891 8.68601 38.8928 8.71249 38.8947 7.51701C38.8965 5.83566 38.8992 4.15431 38.9029 2.47387C38.9038 2.28757 38.902 2.09943 38.9239 1.91403C39.0627 0.763299 39.7504 0.314879 40.8445 0.682018C42.2592 1.15601 43.6693 1.64188 45.0767 2.13779C48.2595 3.2593 51.4331 4.4082 54.6259 5.50049C54.7894 5.5562 54.9337 5.62104 55.0597 5.69684Z" fill="#01F1EA"/>
</svg>
