<svg width="38" height="37" viewBox="0 0 38 37" fill="none" xmlns="http://www.w3.org/2000/svg">
<path d="M24.8114 8.66716C27.7511 8.30911 30.6908 7.93316 33.648 7.61092C36.0802 7.34238 37.3751 8.52394 37.3226 11.084C37.2701 14.6466 37.1301 18.1913 37.0251 21.7538C36.9551 24.117 36.8676 26.4622 36.7977 28.8253C36.7452 30.2217 36.0452 30.6514 34.8379 29.9353C32.1082 28.3598 29.3785 26.7486 26.6662 25.1553C25.3539 24.3855 24.9164 23.007 24.8814 21.6464C24.7415 17.3677 24.8114 13.0891 24.8114 8.66716Z" fill="#01F2EB"/>
<path d="M10.5852 25.8535C7.64547 26.4263 4.74079 27.0171 1.8186 27.5184C0.768712 27.6974 0.576233 26.8381 0.558735 26.0325C0.471244 23.8484 0.41875 21.6643 0.348758 19.4802C0.243769 15.7565 0.156278 12.0328 0.0687877 8.30906C0.0512895 7.93311 0.0512895 7.53925 0.0687877 7.1633C0.208773 5.08662 0.69872 4.80018 2.50103 5.73111C4.07586 6.53672 5.5807 7.48555 7.22552 8.11213C9.67525 9.02516 10.3577 10.9765 10.5327 13.3217C10.6027 14.2169 10.5852 15.112 10.5852 16.025C10.5852 19.2295 10.5852 22.4341 10.5852 25.8535Z" fill="#FF004E"/>
<path d="M13.3847 27.9123C16.6218 27.3931 19.7365 26.3369 23.0087 26.874C23.6561 26.9814 24.3385 27.1246 24.916 27.4289C27.4357 28.7895 29.9204 30.1859 32.3701 31.6539C32.8076 31.9224 33.0701 32.5132 33.42 32.9429C32.9476 33.2651 32.4926 33.7843 31.9677 33.8738C26.9982 34.8584 22.0288 35.7894 17.0418 36.6666C14.8895 37.0425 13.4372 35.8073 13.3847 33.5874C13.3497 31.7613 13.3847 29.9174 13.3847 27.9123Z" fill="#051B34"/>
<path d="M21.8894 9.02512C21.8894 12.9995 21.9593 16.759 21.8544 20.5185C21.8019 22.3266 20.2795 23.9199 18.5647 24.2959C16.8849 24.6539 15.2051 24.9404 13.3153 25.2984C13.3153 24.1169 13.3153 23.0248 13.3153 21.9328C13.2978 19.498 13.2803 17.0454 13.2803 14.6107C13.2803 11.5315 14.6276 9.93814 17.6023 9.52638C18.9847 9.34736 20.3495 9.20414 21.8894 9.02512Z" fill="#FF004E"/>
<path d="M2.55371 2.54456C3.86607 2.32973 4.91596 2.097 5.96584 1.98959C10.6378 1.52412 15.3098 1.07656 19.9643 0.6469C21.5917 0.503681 21.8891 0.808022 21.9066 2.47295C21.9066 3.76193 21.9066 5.033 21.9066 6.17876C14.9074 8.5956 8.69555 6.78745 2.55371 2.54456Z" fill="#FF004E"/>
<path d="M2.41309 29.971C5.37027 29.416 7.92499 28.9327 10.6197 28.4135C10.6197 30.5797 10.7247 32.6564 10.5847 34.7152C10.4797 36.022 9.7798 36.2369 8.7999 35.4671C6.9801 34.017 5.19529 32.5669 3.41048 31.081C3.14801 30.8482 2.93803 30.5439 2.41309 29.971Z" fill="#051B34"/>
<path d="M35.0823 4.92557C31.5652 5.35523 28.1706 5.76698 24.531 6.21454C24.531 4.67493 24.496 3.31435 24.5485 1.95376C24.566 1.21976 25.0034 0.790103 25.7208 1.04074C28.7655 2.11488 31.7927 3.22483 34.8199 4.33479C34.8724 4.37059 34.8899 4.49591 35.0823 4.92557Z" fill="#01F2EB"/>
</svg>
