<svg width="22" height="21" viewBox="0 0 22 21" fill="none" xmlns="http://www.w3.org/2000/svg">
<g clip-path="url(#clip0_428_2318)">
<path d="M20.6663 16.625C20.6663 17.0891 20.4769 17.5342 20.1399 17.8624C19.8029 18.1906 19.3458 18.375 18.8692 18.375H2.69551C2.2189 18.375 1.76181 18.1906 1.42479 17.8624C1.08777 17.5342 0.898438 17.0891 0.898438 16.625V7C0.898438 6.53587 1.08777 6.09075 1.42479 5.76256C1.76181 5.43437 2.2189 5.25 2.69551 5.25H6.28966L8.08674 2.625H13.478L15.275 5.25H18.8692C19.3458 5.25 19.8029 5.43437 20.1399 5.76256C20.4769 6.09075 20.6663 6.53587 20.6663 7V16.625Z" stroke="#051B34" stroke-width="2" stroke-linecap="round" stroke-linejoin="round"/>
<path d="M10.7826 14.875C12.7676 14.875 14.3768 13.308 14.3768 11.375C14.3768 9.442 12.7676 7.875 10.7826 7.875C8.79763 7.875 7.18848 9.442 7.18848 11.375C7.18848 13.308 8.79763 14.875 10.7826 14.875Z" stroke="#051B34" stroke-width="2" stroke-linecap="round" stroke-linejoin="round"/>
</g>
<defs>
<clipPath id="clip0_428_2318">
<rect width="21.5649" height="21" fill="white"/>
</clipPath>
</defs>
</svg>
