<svg width="31" height="18" viewBox="0 0 31 18" fill="none" xmlns="http://www.w3.org/2000/svg">
<path d="M11.0234 11.3662C9.54358 11.3662 8.14571 11.4314 6.75809 11.3441C5.80398 11.2842 4.84269 11.0813 3.92034 10.8122C3.17837 10.5956 2.92011 10.0511 2.98262 9.32996C3.05231 8.52471 3.67848 7.94549 4.46658 8.01276C5.48218 8.09897 6.49369 8.29555 7.50929 8.31762C8.7811 8.34601 10.056 8.2577 11.3278 8.19042C11.6414 8.1736 11.9468 8.03169 12.2604 7.96546C12.6734 7.87821 13.0895 7.75416 13.5066 7.7447C14.8163 7.71632 16.1281 7.7016 17.4368 7.75206C17.9092 7.76993 18.3745 7.98859 18.8439 8.11368C19.0048 8.15678 19.1647 8.20829 19.3276 8.23457C21.6386 8.5962 23.9404 8.43221 26.2391 8.10422C27.0446 7.98964 27.6472 8.3807 27.846 9.11656C28.0653 9.93021 27.7855 10.5179 26.9985 10.8889C25.9501 11.383 24.8186 11.4125 23.7016 11.4545C22.6153 11.4955 21.5259 11.4314 20.4375 11.4146C20.2366 11.4114 20.0368 11.4146 19.7703 11.4146C19.7703 12.6151 19.7775 13.7924 19.7652 14.9709C19.7621 15.281 19.7447 15.6037 19.6566 15.896C19.3789 16.8116 18.7701 17.4213 17.8242 17.4581C16.2787 17.5191 14.7272 17.5359 13.1827 17.4644C11.9058 17.4055 11.0562 16.3732 11.0265 15.0045C11.005 13.9953 11.0214 12.9851 11.0214 11.9749C11.0224 11.7867 11.0234 11.5985 11.0234 11.3662ZM11.8751 10.4663C11.8751 11.9528 11.871 13.4308 11.8761 14.9089C11.8802 16.0852 12.4039 16.6245 13.563 16.6339C14.8225 16.6434 16.081 16.6413 17.3405 16.635C18.4114 16.6297 18.931 16.0967 18.9361 14.9961C18.9423 13.6558 18.9372 12.3155 18.9392 10.9741C18.9392 10.7933 18.9535 10.6125 18.9587 10.4989C20.5021 10.5389 21.9809 10.6366 23.4566 10.5967C24.4681 10.5694 25.4776 10.3717 26.4809 10.2077C26.8078 10.1541 27.1839 10.0049 27.0476 9.51813C26.9308 9.09974 26.6459 8.97885 26.2196 9.05033C23.7692 9.46031 21.3107 9.47082 18.849 9.17438C18.7373 9.16071 18.6307 9.10184 18.52 9.06925C18.1696 8.96623 17.8109 8.75493 17.4696 8.78227C15.6997 8.92418 13.9391 8.55835 12.1384 9.11025C10.6084 9.5791 8.91946 9.62115 7.27768 9.40249C6.40145 9.28581 5.52112 9.21012 4.64387 9.09764C4.27288 9.05033 4.0095 9.12392 3.90395 9.5339C3.79634 9.95229 4.0136 10.1552 4.35385 10.2782C4.52909 10.3412 4.70946 10.4012 4.89188 10.4317C7.19159 10.8196 9.49233 10.7828 11.8751 10.4663Z" fill="#FF004E"/>
<path d="M3.38611 17.0447C2.8819 17.3096 2.44634 17.5997 1.9698 17.7711C1.45226 17.9572 0.999286 17.7143 0.655968 17.3022C0.290105 16.8628 0.101536 16.3278 0.369016 15.8021C1.11407 14.342 1.91343 12.9102 2.7128 11.4248C2.97413 11.5594 3.19549 11.6739 3.47322 11.818C3.35434 12.0482 3.24776 12.2574 3.14015 12.4645C2.53755 13.6135 1.9329 14.7614 1.33338 15.9115C1.07102 16.415 1.13764 16.7083 1.54347 16.9143C1.95648 17.1246 2.2834 16.9827 2.51193 16.4749C2.75892 15.9251 2.99155 15.369 3.26006 14.7478C3.40251 15.1136 3.51934 15.3995 3.6249 15.6897C3.83396 16.2636 4.24697 16.5485 4.83317 16.5538C5.9902 16.5632 7.14826 16.5716 8.30529 16.5506C9.15077 16.5359 9.61502 16.0313 9.62322 15.1588C9.63244 14.2032 9.62527 13.2466 9.62527 12.2542C9.90709 12.2542 10.1531 12.2542 10.397 12.2542C10.397 13.4232 10.4841 14.6069 10.3703 15.7695C10.274 16.7535 9.39468 17.4032 8.41699 17.4158C7.19232 17.4315 5.96458 17.4568 4.74196 17.4021C4.25517 17.3811 3.77657 17.153 3.38611 17.0447Z" fill="#FF004E"/>
<path d="M27.4991 16.8153C26.9755 17.3062 26.3442 17.3472 25.6913 17.3377C24.6194 17.323 23.5464 17.3462 22.4744 17.3283C21.3871 17.3104 20.5211 16.5399 20.4565 15.4424C20.394 14.3701 20.4432 13.2915 20.4432 12.1783C20.6953 12.1783 20.9208 12.1783 21.1964 12.1783C21.1964 13.1696 21.1944 14.1409 21.1975 15.1112C21.2005 15.9785 21.6699 16.4663 22.5226 16.4726C23.612 16.481 24.7014 16.4757 25.7908 16.4747C26.5942 16.4736 26.9232 16.2445 27.2214 15.4865C27.3147 15.25 27.412 15.0145 27.5473 14.6813C27.8035 15.2742 28.0146 15.7746 28.235 16.2718C28.4584 16.7753 28.8847 17.0161 29.2239 16.8384C29.6134 16.6334 29.6882 16.174 29.4135 15.6579C28.7474 14.4059 28.0792 13.1549 27.4131 11.9018C27.3895 11.8566 27.3782 11.8051 27.3505 11.7242C27.5883 11.6012 27.825 11.4792 28.0853 11.3447C28.8396 12.7859 29.5939 14.1861 30.3082 15.6074C30.6741 16.337 30.4148 17.2789 29.7661 17.6205C29.1286 17.9569 28.2462 17.8981 27.7164 17.1506C27.6467 17.056 27.5863 16.9519 27.4991 16.8153Z" fill="#FF004E"/>
<path d="M15.4925 0.917385C17.1835 0.93 18.5568 2.3765 18.5271 4.11313C18.4984 5.77513 17.0759 7.18273 15.4475 7.15961C13.7575 7.13648 12.3976 5.69314 12.4242 3.95124C12.4488 2.25455 13.8139 0.90477 15.4925 0.917385ZM15.4721 1.7815C14.2904 1.7836 13.2871 2.79489 13.2717 3.99855C13.2553 5.29051 14.2259 6.2997 15.4802 6.29444C16.7131 6.28918 17.7011 5.28105 17.6857 4.04375C17.6703 2.80119 16.6701 1.7794 15.4721 1.7815Z" fill="#FF004E"/>
<path d="M4.13493 4.85727C4.15133 3.26781 5.42314 2.02945 7.01265 2.05363C8.54477 2.07676 9.76431 3.36767 9.75304 4.95503C9.74279 6.53504 8.43818 7.83436 6.89274 7.80282C5.335 7.77129 4.11853 6.47196 4.13493 4.85727ZM6.94398 2.90828C5.90583 2.90408 4.97631 3.84178 4.97016 4.89932C4.96402 5.98945 5.89046 6.94817 6.94808 6.94397C8.01288 6.93976 8.90961 6.0357 8.91883 4.95819C8.92703 3.87226 8.00263 2.91249 6.94398 2.90828Z" fill="#FF004E"/>
<path d="M24.0441 2.055C25.6111 2.06551 26.8275 3.34276 26.8193 4.96691C26.8111 6.52379 25.5373 7.80944 24.0052 7.80524C22.4546 7.80103 21.2002 6.50276 21.2002 4.89963C21.1992 3.31227 22.4679 2.04448 24.0441 2.055ZM24.0379 2.9107C22.9445 2.89914 22.0467 3.79689 22.0406 4.90909C22.0344 6.02655 22.9168 6.94113 24.0052 6.94533C25.071 6.94954 25.9697 6.05599 25.9861 4.97848C26.0025 3.88519 25.0956 2.92226 24.0379 2.9107Z" fill="#FF004E"/>
</svg>
