<svg width="39" height="37" viewBox="0 0 39 37" fill="none" xmlns="http://www.w3.org/2000/svg">
<g clip-path="url(#clip0_560_2508)">
<rect width="39" height="37" fill="white"/>
<path d="M13.9066 20.5768C11.9975 20.5768 10.1942 20.6553 8.40409 20.5503C7.17324 20.4781 5.93314 20.2339 4.74327 19.91C3.78609 19.6494 3.45293 18.9939 3.53357 18.1259C3.62347 17.1567 4.43126 16.4595 5.44793 16.5405C6.75811 16.6443 8.063 16.8809 9.37317 16.9074C11.0139 16.9416 12.6585 16.8353 14.2992 16.7543C14.7038 16.7341 15.0977 16.5633 15.5023 16.4836C16.0351 16.3785 16.5719 16.2292 17.1099 16.2178C18.7996 16.1837 20.4918 16.166 22.1801 16.2267C22.7896 16.2482 23.3898 16.5114 23.9953 16.662C24.2029 16.7138 24.4091 16.7758 24.6193 16.8075C27.6006 17.2427 30.57 17.0454 33.5354 16.6506C34.5745 16.5127 35.3519 16.9834 35.6084 17.8691C35.8913 18.8484 35.5304 19.5557 34.515 20.0024C33.1626 20.5971 31.703 20.6325 30.2619 20.6831C28.8605 20.7325 27.4552 20.6553 26.0511 20.635C25.792 20.6312 25.5342 20.635 25.1905 20.635C25.1905 22.08 25.1997 23.4972 25.1838 24.9156C25.1799 25.2888 25.1574 25.6773 25.0437 26.029C24.6854 27.1311 23.9001 27.865 22.6798 27.9093C20.6862 27.9827 18.6845 28.0029 16.6922 27.9169C15.0449 27.846 13.9489 26.6035 13.9105 24.9561C13.8828 23.7414 13.9039 22.5254 13.9039 21.3094C13.9052 21.083 13.9066 20.8565 13.9066 20.5768ZM15.0052 19.4937C15.0052 21.2829 14.9999 23.0619 15.0065 24.8409C15.0118 26.2568 15.6874 26.9059 17.1827 26.9173C18.8075 26.9287 20.431 26.9261 22.0558 26.9186C23.4374 26.9122 24.1077 26.2707 24.1143 24.9459C24.1222 23.3327 24.1156 21.7194 24.1183 20.1049C24.1183 19.8872 24.1368 19.6696 24.1434 19.533C26.1344 19.581 28.0422 19.6987 29.9459 19.6506C31.2508 19.6177 32.5531 19.3799 33.8474 19.1825C34.2691 19.1179 34.7543 18.9383 34.5785 18.3524C34.4278 17.8488 34.0602 17.7033 33.5103 17.7894C30.3492 18.2828 27.1775 18.2955 24.0019 17.9387C23.8578 17.9222 23.7203 17.8514 23.5775 17.8121C23.1254 17.6881 22.6626 17.4338 22.2224 17.4667C19.9392 17.6375 17.6679 17.1972 15.345 17.8615C13.3711 18.4258 11.1923 18.4764 9.07438 18.2132C7.94401 18.0728 6.80835 17.9817 5.67665 17.8463C5.19806 17.7894 4.85829 17.8779 4.72212 18.3714C4.5833 18.875 4.86358 19.1192 5.30251 19.2672C5.52858 19.3432 5.76127 19.4153 5.9966 19.452C8.96333 19.9189 11.9314 19.8746 15.0052 19.4937Z" fill="#FF004E"/>
<path d="M4.05454 27.4116C3.40408 27.7305 2.8422 28.0797 2.22743 28.2859C1.55979 28.5099 0.97543 28.2176 0.532535 27.7216C0.0605554 27.1927 -0.182706 26.5487 0.162355 25.916C1.1235 24.1585 2.15472 22.4352 3.18594 20.6473C3.52306 20.8092 3.80863 20.9472 4.16691 21.1205C4.01355 21.3976 3.87606 21.6494 3.73724 21.8987C2.95986 23.2816 2.17984 24.6634 1.40643 26.0476C1.06797 26.6537 1.15391 27.0067 1.67745 27.2547C2.21025 27.5078 2.63199 27.337 2.92681 26.7258C3.24543 26.0641 3.54554 25.3947 3.89192 24.6469C4.07569 25.0872 4.22641 25.4314 4.36258 25.7806C4.63228 26.4715 5.16508 26.8144 5.9213 26.8207C7.41392 26.8321 8.90787 26.8422 10.4005 26.8169C11.4912 26.7992 12.0901 26.1919 12.1007 25.1417C12.1126 23.9915 12.1033 22.8401 12.1033 21.6456C12.4669 21.6456 12.7842 21.6456 13.0988 21.6456C13.0988 23.0526 13.2112 24.4774 13.0645 25.8768C12.9402 27.0611 11.8059 27.8431 10.5446 27.8583C8.96472 27.8772 7.38087 27.9076 5.80364 27.8418C5.17566 27.8165 4.55825 27.5419 4.05454 27.4116Z" fill="#FF004E"/>
<path d="M35.1609 27.1354C34.4853 27.7263 33.6709 27.7757 32.8287 27.7643C31.4458 27.7466 30.0616 27.7744 28.6787 27.7529C27.276 27.7314 26.1589 26.8039 26.0756 25.4829C25.9949 24.1923 26.0584 22.8941 26.0584 21.5541C26.3836 21.5541 26.6745 21.5541 27.0301 21.5541C27.0301 22.7473 27.0275 23.9165 27.0314 25.0843C27.0354 26.1282 27.6409 26.7153 28.7409 26.7229C30.1462 26.733 31.5516 26.7267 32.957 26.7255C33.9935 26.7242 34.4179 26.4483 34.8026 25.5361C34.9229 25.2514 35.0485 24.9679 35.223 24.5668C35.5535 25.2805 35.8259 25.8828 36.1101 26.4812C36.3983 27.0873 36.9483 27.3771 37.3859 27.1632C37.8883 26.9165 37.9848 26.3636 37.6305 25.7423C36.7712 24.2353 35.9092 22.7296 35.0498 21.2214C35.0194 21.167 35.0049 21.105 34.9692 21.0075C35.2759 20.8595 35.5813 20.7127 35.9171 20.5508C36.8901 22.2855 37.8632 23.9709 38.7847 25.6816C39.2566 26.5597 38.9222 27.6934 38.0853 28.1046C37.263 28.5095 36.1247 28.4387 35.4411 27.539C35.3512 27.4252 35.2732 27.2999 35.1609 27.1354Z" fill="#FF004E"/>
<path d="M19.6726 8.00011C21.8541 8.01529 23.6256 9.75635 23.5873 11.8466C23.5503 13.8471 21.7152 15.5413 19.6145 15.5135C17.4344 15.4857 15.68 13.7484 15.7144 11.6518C15.7461 9.60958 17.5071 7.98492 19.6726 8.00011ZM19.6462 9.04019C18.1219 9.04272 16.8275 10.2599 16.8077 11.7087C16.7866 13.2638 18.0386 14.4785 19.6568 14.4722C21.2472 14.4658 22.5217 13.2524 22.5019 11.7631C22.4821 10.2675 21.1917 9.03766 19.6462 9.04019Z" fill="#FF004E"/>
<path d="M5.01974 12.7424C5.0409 10.8292 6.68159 9.33869 8.73212 9.36779C10.7086 9.39563 12.2819 10.9494 12.2673 12.86C12.2541 14.7618 10.5711 16.3257 8.57744 16.2878C6.56789 16.2498 4.99859 14.6859 5.01974 12.7424ZM8.64354 10.3965C7.30428 10.3914 6.10516 11.5201 6.09723 12.793C6.0893 14.1051 7.28445 15.2591 8.64883 15.254C10.0225 15.2489 11.1793 14.1608 11.1912 12.8638C11.2018 11.5568 10.0092 10.4015 8.64354 10.3965Z" fill="#FF004E"/>
<path d="M30.7029 9.3694C32.7244 9.38205 34.2937 10.9194 34.2831 12.8743C34.2725 14.7482 32.6292 16.2957 30.6527 16.2906C28.6524 16.2856 27.0342 14.7229 27.0342 12.7933C27.0329 10.8827 28.6696 9.35675 30.7029 9.3694ZM30.695 10.3994C29.2843 10.3854 28.1262 11.466 28.1183 12.8047C28.1103 14.1497 29.2487 15.2506 30.6527 15.2556C32.0276 15.2607 33.1871 14.1852 33.2083 12.8882C33.2294 11.5723 32.0594 10.4133 30.695 10.3994Z" fill="#FF004E"/>
</g>
<defs>
<clipPath id="clip0_560_2508">
<rect width="39" height="37" fill="white"/>
</clipPath>
</defs>
</svg>
