<svg width="29" height="16" viewBox="0 0 29 16" fill="none" xmlns="http://www.w3.org/2000/svg">
<path d="M10.4788 10.0337C9.10634 10.0337 7.80991 10.0927 6.523 10.0137C5.63812 9.95944 4.7466 9.77572 3.89119 9.53201C3.20306 9.33591 2.96355 8.8428 3.02152 8.18976C3.08615 7.46056 3.66688 6.93604 4.39778 6.99696C5.33968 7.07502 6.27778 7.25304 7.21968 7.27303C8.3992 7.29873 9.58156 7.21877 10.7611 7.15784C11.0519 7.14261 11.3352 7.0141 11.626 6.95412C12.009 6.87511 12.3949 6.76278 12.7817 6.75421C13.9964 6.72851 15.213 6.71518 16.4267 6.76088C16.8649 6.77706 17.2964 6.97507 17.7317 7.08835C17.8809 7.12738 18.0292 7.17402 18.1803 7.19782C20.3236 7.5253 22.4583 7.37679 24.5902 7.07978C25.3373 6.97602 25.8961 7.33014 26.0805 7.99651C26.2839 8.73332 26.0244 9.26547 25.2945 9.60151C24.3222 10.0489 23.2729 10.0756 22.2369 10.1137C21.2294 10.1508 20.2191 10.0927 19.2097 10.0775C19.0234 10.0746 18.838 10.0775 18.5909 10.0775C18.5909 11.1646 18.5976 12.2308 18.5862 13.2979C18.5833 13.5788 18.5672 13.871 18.4854 14.1357C18.2278 14.9648 17.6633 15.517 16.786 15.5503C15.3527 15.6055 13.9137 15.6207 12.4814 15.556C11.2971 15.5027 10.5092 14.5679 10.4816 13.3284C10.4617 12.4145 10.4769 11.4997 10.4769 10.5849C10.4778 10.4145 10.4788 10.2441 10.4788 10.0337ZM11.2686 9.21882C11.2686 10.5649 11.2648 11.9033 11.2696 13.2418C11.2734 14.307 11.7591 14.7954 12.834 14.8039C14.0021 14.8125 15.1693 14.8106 16.3374 14.8049C17.3306 14.8001 17.8125 14.3175 17.8173 13.3208C17.823 12.1071 17.8182 10.8933 17.8201 9.67862C17.8201 9.51488 17.8334 9.35114 17.8382 9.24833C19.2695 9.28451 20.6411 9.37304 22.0097 9.33686C22.9478 9.31211 23.884 9.13315 24.8145 8.98464C25.1177 8.93609 25.4665 8.80091 25.3401 8.36016C25.2318 7.98128 24.9675 7.87181 24.5721 7.93654C22.2996 8.3078 20.0195 8.31732 17.7365 8.04887C17.6329 8.03649 17.534 7.98319 17.4314 7.95367C17.1063 7.86038 16.7737 7.66904 16.4572 7.69379C14.8157 7.8223 13.1828 7.49102 11.5129 7.9908C10.0939 8.41537 8.52751 8.45345 7.00488 8.25544C6.19224 8.14978 5.3758 8.08124 4.56221 7.97938C4.21815 7.93654 3.97388 8.00318 3.87598 8.37444C3.77618 8.75332 3.97768 8.93704 4.29323 9.04842C4.45576 9.10554 4.62304 9.1598 4.79222 9.18741C6.92504 9.53868 9.05881 9.50536 11.2686 9.21882Z" fill="#8B8B8B"/>
<path d="M3.39581 15.1758C2.92819 15.4157 2.52425 15.6785 2.08229 15.8336C1.60231 16.0021 1.18221 15.7822 0.863803 15.409C0.524491 15.0111 0.349607 14.5266 0.597676 14.0506C1.28866 12.7283 2.03001 11.4318 2.77137 10.0867C3.01373 10.2085 3.21903 10.3123 3.4766 10.4427C3.36635 10.6512 3.2675 10.8406 3.16771 11.0282C2.60884 12.0686 2.04807 13.1082 1.49205 14.1496C1.24874 14.6056 1.31052 14.8712 1.6869 15.0578C2.06993 15.2482 2.37313 15.1197 2.58508 14.6599C2.81414 14.162 3.02989 13.6584 3.27891 13.0958C3.41102 13.4271 3.51937 13.686 3.61727 13.9488C3.81116 14.4685 4.1942 14.7265 4.73786 14.7313C5.81092 14.7398 6.88493 14.7474 7.958 14.7284C8.74212 14.7151 9.17268 14.2581 9.18028 13.468C9.18884 12.6027 9.18218 11.7364 9.18218 10.8378C9.44356 10.8378 9.67167 10.8378 9.89787 10.8378C9.89787 11.8963 9.97866 12.9682 9.87316 14.0211C9.78382 14.9121 8.96833 15.5004 8.0616 15.5119C6.9258 15.5261 5.78716 15.549 4.65327 15.4995C4.2018 15.4804 3.75794 15.2739 3.39581 15.1758Z" fill="#8B8B8B"/>
<path d="M25.7582 14.9681C25.2725 15.4127 24.687 15.4498 24.0816 15.4413C23.0874 15.4279 22.0923 15.4489 21.0981 15.4327C20.0897 15.4165 19.2866 14.7187 19.2267 13.7249C19.1687 12.7539 19.2143 11.7772 19.2143 10.7691C19.4481 10.7691 19.6572 10.7691 19.9129 10.7691C19.9129 11.6668 19.911 12.5464 19.9139 13.425C19.9167 14.2104 20.352 14.6521 21.1428 14.6578C22.1531 14.6654 23.1635 14.6606 24.1738 14.6597C24.919 14.6587 25.224 14.4512 25.5006 13.7649C25.5871 13.5507 25.6774 13.3374 25.8029 13.0357C26.0405 13.5726 26.2363 14.0257 26.4406 14.476C26.6478 14.932 27.0432 15.15 27.3578 14.9891C27.719 14.8034 27.7884 14.3874 27.5337 13.92C26.9159 12.7863 26.2962 11.6534 25.6784 10.5187C25.6565 10.4778 25.6461 10.4311 25.6204 10.3578C25.8409 10.2464 26.0605 10.136 26.3019 10.0142C27.0014 11.3193 27.7009 12.5873 28.3634 13.8743C28.7027 14.535 28.4623 15.3879 27.8606 15.6973C27.2694 16.002 26.4511 15.9486 25.9597 15.2718C25.8951 15.1861 25.839 15.0919 25.7582 14.9681Z" fill="#8B8B8B"/>
<path d="M14.6238 0.571613C16.1921 0.583036 17.4657 1.89293 17.4381 3.46555C17.4115 4.97059 16.0923 6.24526 14.582 6.22432C13.0147 6.20338 11.7535 4.89634 11.7782 3.31895C11.801 1.7825 13.067 0.560189 14.6238 0.571613ZM14.6048 1.35412C13.509 1.35602 12.5785 2.2718 12.5642 3.36179C12.549 4.53174 13.4491 5.44562 14.6124 5.44086C15.7558 5.4361 16.6721 4.52318 16.6578 3.40273C16.6436 2.27752 15.7159 1.35222 14.6048 1.35412Z" fill="#8B8B8B"/>
<path d="M4.08951 4.1394C4.10471 2.70004 5.28423 1.57864 6.75838 1.60053C8.17931 1.62148 9.31036 2.79048 9.2999 4.22793C9.2904 5.65872 8.08047 6.83533 6.64718 6.80677C5.20249 6.77821 4.0743 5.6016 4.08951 4.1394ZM6.6947 2.37447C5.73189 2.37067 4.86983 3.21981 4.86413 4.17747C4.85843 5.16465 5.71764 6.03283 6.69851 6.02903C7.68603 6.02522 8.51768 5.20654 8.52623 4.23078C8.53383 3.24742 7.67652 2.37828 6.6947 2.37447Z" fill="#8B8B8B"/>
<path d="M22.554 1.60187C24.0073 1.61138 25.1354 2.76801 25.1278 4.23878C25.1202 5.64862 23.9388 6.81286 22.5179 6.80906C21.0799 6.80525 19.9165 5.62958 19.9165 4.17785C19.9156 2.7404 21.0922 1.59235 22.554 1.60187ZM22.5483 2.37676C21.5342 2.36628 20.7016 3.17925 20.6959 4.18642C20.6902 5.19835 21.5085 6.02655 22.5179 6.03036C23.5064 6.03416 24.3399 5.225 24.3551 4.24925C24.3703 3.25922 23.5292 2.38723 22.5483 2.37676Z" fill="#8B8B8B"/>
</svg>
