<svg width="25" height="15" viewBox="0 0 25 15" fill="none" xmlns="http://www.w3.org/2000/svg">
<path d="M8.71986 8.93967C7.52732 8.93967 6.40084 8.99087 5.28263 8.92233C4.51375 8.87525 3.73909 8.71586 2.99582 8.50444C2.3979 8.33431 2.18978 7.90652 2.24016 7.33997C2.29631 6.70736 2.80092 6.25231 3.436 6.30517C4.25443 6.37289 5.06956 6.52733 5.88798 6.54467C6.91288 6.56697 7.94025 6.4976 8.96514 6.44474C9.21786 6.43153 9.46396 6.32004 9.71668 6.26801C10.0495 6.19946 10.3848 6.10201 10.7209 6.09458C11.7764 6.07228 12.8335 6.06071 13.8881 6.10036C14.2688 6.1144 14.6438 6.28617 15.022 6.38445C15.1517 6.41831 15.2805 6.45878 15.4118 6.47943C17.2741 6.76352 19.129 6.63469 20.9814 6.37702C21.6306 6.287 22.1162 6.59422 22.2764 7.17232C22.4531 7.81154 22.2276 8.2732 21.5934 8.56473C20.7485 8.95288 19.8368 8.97601 18.9366 9.00904C18.0612 9.04125 17.1833 8.99087 16.3062 8.97766C16.1444 8.97518 15.9833 8.97766 15.7686 8.97766C15.7686 9.92079 15.7744 10.8458 15.7645 11.7715C15.762 12.0152 15.7479 12.2687 15.6769 12.4983C15.4531 13.2176 14.9625 13.6966 14.2003 13.7255C12.9549 13.7734 11.7045 13.7866 10.46 13.7305C9.43093 13.6842 8.74629 12.8732 8.72234 11.798C8.705 11.0051 8.71821 10.2115 8.71821 9.41784C8.71904 9.27001 8.71986 9.12218 8.71986 8.93967ZM9.40615 8.23273C9.40615 9.4005 9.40285 10.5617 9.40698 11.7228C9.41028 12.647 9.8323 13.0706 10.7663 13.0781C11.7813 13.0855 12.7955 13.0838 13.8105 13.0789C14.6735 13.0748 15.0922 12.656 15.0963 11.7914C15.1013 10.7384 15.0972 9.68542 15.0988 8.63162C15.0988 8.48957 15.1104 8.34753 15.1145 8.25833C16.3583 8.28972 17.55 8.36652 18.7392 8.33514C19.5543 8.31367 20.3678 8.1584 21.1763 8.02957C21.4398 7.98745 21.7429 7.87018 21.633 7.4878C21.5389 7.15911 21.3093 7.06414 20.9657 7.1203C18.9911 7.44238 17.0099 7.45064 15.0261 7.21775C14.9361 7.20701 14.8502 7.16076 14.761 7.13516C14.4786 7.05423 14.1895 6.88823 13.9145 6.9097C12.4883 7.02119 11.0694 6.73379 9.6184 7.16737C8.38539 7.5357 7.02437 7.56874 5.70134 7.39696C4.99523 7.30529 4.28581 7.24583 3.57888 7.15746C3.27992 7.12029 3.06767 7.17811 2.98261 7.50019C2.89589 7.82888 3.07097 7.98828 3.34516 8.0849C3.48638 8.13445 3.63173 8.18153 3.77874 8.20548C5.63197 8.51022 7.48603 8.48132 9.40615 8.23273Z" fill="#051B34"/>
<path d="M2.56547 13.4007C2.15914 13.6088 1.80815 13.8368 1.42413 13.9714C1.00707 14.1176 0.642038 13.9268 0.365375 13.603C0.0705421 13.2578 -0.0814164 12.8375 0.134133 12.4245C0.734534 11.2774 1.37871 10.1526 2.02288 8.98566C2.23347 9.09137 2.41186 9.18139 2.63567 9.29453C2.53987 9.47539 2.45398 9.63974 2.36726 9.80243C1.88166 10.7051 1.3944 11.6069 0.911269 12.5104C0.699848 12.906 0.753529 13.1364 1.08057 13.2983C1.41339 13.4635 1.67684 13.352 1.86101 12.9531C2.06004 12.5212 2.24751 12.0843 2.46389 11.5962C2.57868 11.8836 2.67283 12.1082 2.75789 12.3362C2.92637 12.7871 3.25919 13.0109 3.73158 13.015C4.66398 13.0225 5.5972 13.0291 6.5296 13.0126C7.21094 13.001 7.58505 12.6046 7.59166 11.9191C7.59909 11.1684 7.59331 10.4169 7.59331 9.63726C7.82042 9.63726 8.01863 9.63726 8.21519 9.63726C8.21519 10.5556 8.28538 11.4855 8.19371 12.3989C8.11608 13.1719 7.40749 13.6823 6.61962 13.6922C5.63272 13.7046 4.64334 13.7245 3.65808 13.6815C3.2658 13.665 2.88012 13.4858 2.56547 13.4007Z" fill="#051B34"/>
<path d="M21.9963 13.2205C21.5743 13.6062 21.0655 13.6384 20.5395 13.6309C19.6756 13.6194 18.8109 13.6375 17.9471 13.6235C17.0708 13.6095 16.373 13.0041 16.321 12.1419C16.2706 11.2995 16.3102 10.4522 16.3102 9.57761C16.5134 9.57761 16.6951 9.57761 16.9172 9.57761C16.9172 10.3564 16.9156 11.1195 16.9181 11.8818C16.9205 12.5631 17.2988 12.9463 17.9859 12.9513C18.8638 12.9579 19.7417 12.9537 20.6196 12.9529C21.267 12.9521 21.5322 12.772 21.7725 12.1766C21.8476 11.9908 21.9261 11.8058 22.0351 11.544C22.2416 12.0098 22.4117 12.4029 22.5893 12.7935C22.7693 13.1891 23.1128 13.3782 23.3862 13.2387C23.7 13.0776 23.7603 12.7167 23.539 12.3112C23.0022 11.3276 22.4637 10.3448 21.9269 9.36041C21.9079 9.32489 21.8988 9.28443 21.8765 9.22084C22.0681 9.12421 22.2589 9.02841 22.4687 8.9227C23.0765 10.055 23.6843 11.155 24.26 12.2716C24.5548 12.8447 24.3459 13.5847 23.8231 13.8531C23.3094 14.1174 22.5983 14.0711 22.1714 13.4839C22.1152 13.4096 22.0665 13.3278 21.9963 13.2205Z" fill="#051B34"/>
<path d="M12.3216 0.730919C13.6842 0.740829 14.7909 1.87721 14.7669 3.24154C14.7438 4.54723 13.5975 5.65305 12.2852 5.63489C10.9234 5.61672 9.82747 4.48281 9.84894 3.11436C9.86876 1.78141 10.9688 0.721009 12.3216 0.730919ZM12.3051 1.40978C11.3528 1.41143 10.5443 2.20591 10.5319 3.15152C10.5187 4.1665 11.3008 4.95933 12.3117 4.9552C13.3052 4.95107 14.1013 4.15907 14.0889 3.18703C14.0765 2.21086 13.2705 1.40813 12.3051 1.40978Z" fill="#051B34"/>
<path d="M3.1681 3.82612C3.18131 2.57742 4.20621 1.60455 5.48712 1.62355C6.72178 1.64172 7.70456 2.65588 7.69547 3.90293C7.68721 5.1442 6.63589 6.16496 5.39049 6.14019C4.13518 6.11541 3.15489 5.09465 3.1681 3.82612ZM5.43179 2.29497C4.59519 2.29167 3.84613 3.02834 3.84118 3.85916C3.83622 4.71557 4.5828 5.46876 5.43509 5.46546C6.29316 5.46215 7.01579 4.75191 7.02322 3.9054C7.02983 3.05229 6.2849 2.29828 5.43179 2.29497Z" fill="#051B34"/>
<path d="M19.2122 1.62462C20.4749 1.63288 21.4552 2.6363 21.4486 3.91226C21.442 5.13536 20.4155 6.14539 19.1808 6.14209C17.9313 6.13878 16.9204 5.11884 16.9204 3.85941C16.9196 2.61235 17.942 1.61637 19.2122 1.62462ZM19.2072 2.29688C18.326 2.28779 17.6026 2.99308 17.5976 3.86684C17.5927 4.74473 18.3037 5.46323 19.1808 5.46653C20.0397 5.46984 20.764 4.76785 20.7772 3.92134C20.7904 3.06245 20.0595 2.30596 19.2072 2.29688Z" fill="#051B34"/>
</svg>
