<svg width="23" height="21" viewBox="0 0 23 21" fill="none" xmlns="http://www.w3.org/2000/svg">
<path d="M9.99726 3.40248L2.5662 15.6543C2.41299 15.9163 2.33192 16.2134 2.33106 16.516C2.3302 16.8186 2.40959 17.1161 2.56131 17.379C2.71303 17.6419 2.93181 17.8609 3.19587 18.0144C3.45994 18.1678 3.76008 18.2503 4.06645 18.2537H18.9286C19.2349 18.2503 19.5351 18.1678 19.7992 18.0144C20.0632 17.8609 20.282 17.6419 20.4337 17.379C20.5854 17.1161 20.6648 16.8186 20.664 16.516C20.6631 16.2134 20.582 15.9163 20.4288 15.6543L12.9978 3.40248C12.8414 3.14783 12.6211 2.93729 12.3584 2.79118C12.0956 2.64506 11.7991 2.5683 11.4975 2.5683C11.1959 2.5683 10.8995 2.64506 10.6367 2.79118C10.3739 2.93729 10.1537 3.14783 9.99726 3.40248V3.40248Z" stroke="#FF004E" stroke-width="2" stroke-linecap="round" stroke-linejoin="round"/>
<path d="M11.4971 7.85608V11.3219" stroke="#FF004E" stroke-width="2" stroke-linecap="round" stroke-linejoin="round"/>
<path d="M11.4971 14.7878H11.506" stroke="#FF004E" stroke-width="2" stroke-linecap="round" stroke-linejoin="round"/>
</svg>
