<svg width="34" height="18" viewBox="0 0 34 18" fill="none" xmlns="http://www.w3.org/2000/svg">
<path d="M12.577 10.6236C10.9644 10.6236 9.44115 10.6899 7.92908 10.6011C6.88938 10.5402 5.84187 10.3339 4.8368 10.0603C4.02827 9.84016 3.74685 9.28652 3.81497 8.55332C3.89091 7.73462 4.57325 7.14572 5.43203 7.21412C6.53872 7.30176 7.64095 7.50163 8.74765 7.52407C10.1335 7.55293 11.5228 7.46315 12.9087 7.39475C13.2504 7.37765 13.5832 7.23336 13.9249 7.16602C14.3749 7.07731 14.8283 6.95119 15.2829 6.94158C16.7101 6.91272 18.1395 6.89775 19.5656 6.94906C20.0804 6.96723 20.5874 7.18954 21.0989 7.31672C21.2742 7.36054 21.4484 7.41292 21.626 7.43964C24.1443 7.8073 26.6525 7.64057 29.1573 7.3071C30.0351 7.19061 30.6918 7.5882 30.9084 8.33636C31.1474 9.16361 30.8425 9.76107 29.9849 10.1384C28.8424 10.6407 27.6095 10.6706 26.3923 10.7134C25.2085 10.755 24.0214 10.6899 22.8354 10.6728C22.6166 10.6695 22.3988 10.6728 22.1084 10.6728C22.1084 11.8933 22.1162 13.0904 22.1028 14.2885C22.0995 14.6038 22.0805 14.9319 21.9845 15.229C21.6818 16.16 21.0185 16.7799 19.9877 16.8173C18.3037 16.8793 16.6129 16.8964 14.93 16.8237C13.5385 16.7638 12.6127 15.7143 12.5803 14.3227C12.5569 13.2967 12.5747 12.2695 12.5747 11.2424C12.5759 11.0511 12.577 10.8598 12.577 10.6236ZM13.505 9.7087C13.505 11.22 13.5005 12.7227 13.5061 14.2254C13.5106 15.4214 14.0812 15.9697 15.3443 15.9793C16.7168 15.989 18.0881 15.9868 19.4606 15.9804C20.6276 15.9751 21.1938 15.4332 21.1994 14.3141C21.2061 12.9514 21.2005 11.5887 21.2027 10.2249C21.2027 10.0411 21.2184 9.85726 21.224 9.74183C22.9058 9.78244 24.5173 9.88184 26.1254 9.84123C27.2276 9.81344 28.3276 9.6125 29.4209 9.44577C29.7771 9.39126 30.187 9.23949 30.0385 8.74464C29.9112 8.31926 29.6007 8.19635 29.1361 8.26902C26.466 8.68586 23.7869 8.69654 21.1045 8.39514C20.9827 8.38125 20.8666 8.32139 20.746 8.28826C20.3641 8.18352 19.9732 7.96869 19.6013 7.99648C17.6727 8.14077 15.7541 7.76883 13.792 8.32994C12.1247 8.80663 10.2843 8.84938 8.49527 8.62707C7.54045 8.50843 6.58116 8.43148 5.62522 8.31712C5.22096 8.26902 4.93396 8.34384 4.81893 8.76067C4.70167 9.18605 4.93842 9.39233 5.30918 9.51738C5.50015 9.58151 5.6967 9.64243 5.89548 9.67343C8.40146 10.0678 10.9086 10.0304 13.505 9.7087Z" fill="#8B8B8B"/>
<path d="M4.25493 16.3969C3.70549 16.6662 3.23087 16.9612 2.71158 17.1354C2.14762 17.3246 1.65402 17.0777 1.27991 16.6588C0.881229 16.212 0.675747 15.668 0.967219 15.1336C1.77909 13.649 2.65016 12.1933 3.52122 10.6831C3.80599 10.8199 4.04721 10.9364 4.34985 11.0828C4.22031 11.3169 4.10416 11.5296 3.98691 11.7401C3.33026 12.9083 2.67138 14.0755 2.01808 15.2447C1.73219 15.7567 1.80478 16.0549 2.24701 16.2644C2.69706 16.4781 3.0533 16.3338 3.30234 15.8176C3.57148 15.2586 3.82498 14.6932 4.11757 14.0616C4.27279 14.4335 4.4001 14.7242 4.51513 15.0192C4.74294 15.6028 5.19299 15.8924 5.83177 15.8978C7.09258 15.9074 8.35451 15.9159 9.61532 15.8946C10.5366 15.8796 11.0425 15.3666 11.0515 14.4795C11.0615 13.5079 11.0537 12.5353 11.0537 11.5264C11.3608 11.5264 11.6288 11.5264 11.8946 11.5264C11.8946 12.7149 11.9895 13.9184 11.8656 15.1005C11.7606 16.1008 10.8024 16.7614 9.73704 16.7742C8.40253 16.7902 7.06466 16.8159 5.73238 16.7603C5.20193 16.7389 4.68041 16.507 4.25493 16.3969Z" fill="#8B8B8B"/>
<path d="M30.5301 16.1636C29.9595 16.6627 29.2716 16.7044 28.5602 16.6948C27.3921 16.6798 26.2228 16.7033 25.0547 16.6852C23.8699 16.667 22.9262 15.8836 22.8558 14.7677C22.7877 13.6776 22.8413 12.581 22.8413 11.4491C23.1161 11.4491 23.3617 11.4491 23.6621 11.4491C23.6621 12.457 23.6599 13.4446 23.6633 14.4311C23.6666 15.3128 24.1781 15.8087 25.1072 15.8152C26.2943 15.8237 27.4814 15.8184 28.6685 15.8173C29.5441 15.8162 29.9025 15.5832 30.2275 14.8126C30.3291 14.5722 30.4352 14.3327 30.5826 13.9939C30.8618 14.5967 31.0919 15.1055 31.332 15.611C31.5754 16.123 32.04 16.3677 32.4096 16.1871C32.834 15.9787 32.9155 15.5116 32.6162 14.9868C31.8903 13.7139 31.1622 12.442 30.4363 11.168C30.4107 11.1221 30.3984 11.0697 30.3682 10.9874C30.6273 10.8623 30.8853 10.7384 31.1689 10.6016C31.9909 12.0669 32.8128 13.4905 33.5912 14.9355C33.9898 15.6773 33.7073 16.6349 33.0004 16.9823C32.3058 17.3243 31.3443 17.2645 30.7669 16.5045C30.691 16.4083 30.6251 16.3025 30.5301 16.1636Z" fill="#8B8B8B"/>
<path d="M17.4475 8.91693e-05C19.2901 0.0129148 20.7866 1.48358 20.7542 3.24924C20.7229 4.93901 19.1729 6.37013 17.3983 6.34662C15.5568 6.3231 14.0749 4.85564 14.1039 3.08464C14.1307 1.3596 15.6182 -0.0127364 17.4475 8.91693e-05ZM17.4251 0.878642C16.1375 0.88078 15.0442 1.90896 15.0275 3.13274C15.0096 4.44629 16.0672 5.47234 17.4341 5.467C18.7775 5.46165 19.8541 4.43667 19.8373 3.1787C19.8206 1.91538 18.7306 0.876504 17.4251 0.878642Z" fill="#8B8B8B"/>
<path d="M5.07 4.00587C5.08787 2.38985 6.47376 1.1308 8.20583 1.15538C9.87537 1.1789 11.2043 2.49138 11.192 4.10527C11.1809 5.71167 9.75923 7.03271 8.07517 7.00064C6.37771 6.96858 5.05213 5.64754 5.07 4.00587ZM8.13101 2.02432C6.99974 2.02004 5.98685 2.97341 5.98015 4.04862C5.97345 5.15697 6.98299 6.13171 8.13548 6.12743C9.29578 6.12316 10.2729 5.20399 10.283 4.10847C10.2919 3.00441 9.28461 2.02859 8.13101 2.02432Z" fill="#8B8B8B"/>
<path d="M26.765 1.15671C28.4725 1.1674 29.7981 2.46599 29.7891 4.11729C29.7802 5.70018 28.3921 7.00732 26.7226 7.00304C25.0329 6.99877 23.666 5.6788 23.666 4.04888C23.6649 2.435 25.0474 1.14602 26.765 1.15671ZM26.7583 2.02671C25.5667 2.01496 24.5884 2.92771 24.5817 4.0585C24.575 5.19463 25.5366 6.12449 26.7226 6.12876C27.884 6.13304 28.8634 5.22456 28.8812 4.12904C28.8991 3.01749 27.9108 2.03847 26.7583 2.02671Z" fill="#8B8B8B"/>
</svg>
