<svg width="517" height="499" viewBox="0 0 517 499" fill="none" xmlns="http://www.w3.org/2000/svg">
<path d="M516.288 277.53L516.188 278.54C515.628 318.11 516.198 341.14 515.668 382.86C515.488 388.5 515.488 394.21 513.748 399.67C511.098 407.96 505.138 411.11 496.658 408.87C491.438 407.49 486.918 404.62 482.298 402C446.428 381.65 410.778 360.9 374.668 340.98C355.358 330.32 346.848 313.86 346.038 292.9C343.778 234.36 345.018 175.79 344.838 117.24C344.828 113.74 347.448 110.79 350.928 110.39C382.388 106.8 413.838 103.1 445.298 99.4798C456.368 98.2098 467.398 96.4898 478.568 96.2498C506.058 95.6398 515.818 110.22 516.198 137.82C516.478 158.28 516.628 179.47 516.198 199.94C515.968 210.59 516.368 220.7 516.198 231.35C516.028 241.99 516.198 252.47 516.198 263.11C516.198 267.01 516.548 276.02 516.288 277.53Z" fill="#01F1EA"/>
<path d="M0.339172 193.23C0.329172 193.2 0.319153 193.18 0.319153 193.15C0.319153 165.7 0.319153 145.52 0.319153 103.9C0.319153 97.28 0.319153 76.99 0.319153 66.34C0.319153 57.93 7.23904 55.8699 18.699 61.2199C30.419 65.1499 81.139 90.7499 98.399 97.4299C123.359 107.1 134.939 127.13 140.959 152.31C142.599 159.17 142.879 162.94 142.889 175.26C142.899 182.25 142.709 286.72 142.889 335.53C142.909 340.01 141.499 341.31 137.249 342.1C98.8191 349.24 60.459 356.81 21.909 363.3C6.699 365.86 0.0789866 361.08 0.148987 345.25C0.308987 310.63 0.739143 292.87 0.309143 258.16C0.199143 248.84 0.309143 223.42 0.309143 214.1C0.00914279 214.1 0.609172 194.22 0.339172 193.23Z" fill="#FE014E"/>
<path d="M181.199 380.62C181.189 378.42 182.599 376.81 185.379 376.37C210.499 372.37 235.229 366.18 260.459 362.79C285.909 359.37 311.259 358.98 336.159 366.33C350.149 370.46 362.299 378.61 374.989 385.45C399.849 398.85 424.329 412.96 449.129 426.5C457.139 432.03 463.259 431.96 462.499 444.62C461.869 455.07 455.909 455.09 438.049 459.77C419.329 463.95 418.529 463.68 405.969 466.56C353.779 475.94 326.579 481.57 274.389 490.95C259.019 493.71 243.729 497.3 228.139 498.43C201.719 500.34 183.539 484.35 181.199 457.96C181.499 442.98 181.239 393.44 181.199 380.62Z" fill="#051B34"/>
<path d="M303.379 197.87C303.929 221.36 302.529 244.86 303.139 268.3C303.969 299.72 278.829 322.62 254.019 327.07C231.099 331.18 208.219 335.48 185.339 339.83C182.159 340.43 181.299 339.64 181.299 336.45C181.239 286.65 181.049 236.87 181.199 187.07C181.239 172.92 184.339 159.29 192.909 147.52C202.949 133.74 217.289 126.82 233.449 124.26C252.789 121.19 258.859 120.76 278.019 118.46C278.189 118.44 291.239 117.14 291.409 117.12C296.489 116.54 300.889 115.78 302.429 118.87C303.429 120.87 303.139 123.96 303.139 127.96C303.209 151.26 303.379 174.55 303.379 197.87Z" fill="#FE014E"/>
<path d="M46.4894 38.0499C42.1694 35.6699 40.6793 27.2599 51.6393 25.8499C68.8193 23.6499 81.0395 22.2999 81.0395 22.2999C81.0395 22.2999 138.79 15.55 170.11 11.93C201.42 9.01995 232.729 4.37999 264.049 1.52999C271.839 0.81999 279.619 -0.330034 287.449 0.129966C297.869 0.739966 301.809 4.77997 302.969 15.13C302.979 15.2 302.979 15.2799 302.989 15.3499C303.199 24.3899 303.199 42.32 303.199 42.32C303.199 42.32 303.199 62.55 303.199 72.32C303.299 75.97 302.599 77.3 299.129 78.4C236.099 98.41 173.949 95.7 112.539 71.62C84.6095 60.68 46.4994 38.0599 46.4894 38.0499Z" fill="#FE014E"/>
<path d="M28.9297 409.68C27.5297 407.72 28.6798 404.96 31.0498 404.52C40.4898 402.77 49.4897 401.09 58.4897 399.43C84.6397 394.6 110.8 389.79 136.94 384.93C143.08 383.79 143.03 383.71 143.07 390.09C143.23 415.38 144.46 440.67 142.98 465.96C142.91 467.17 142.84 468.37 142.74 469.57C141.71 482.32 126.9 488.92 116.83 481.04C116.78 481 116.72 480.96 116.67 480.91C91.9897 461.45 78.3097 450.69 53.6697 431.18C50.4397 427.98 32.2097 414.26 28.9297 409.68Z" fill="#051B34"/>
<path d="M485.009 50.83C489.229 53.4 487.759 59.89 482.849 60.48C471.539 61.83 460.239 63.18 448.929 64.53C416.389 68.41 383.839 72.2 351.319 76.2C340.879 77.48 340.899 77.72 340.909 67.07C340.929 52.08 340.949 37.1 340.989 22.11C340.989 20.45 340.979 18.77 341.179 17.12C342.409 6.86001 348.549 2.86002 358.299 6.13002C370.909 10.36 383.479 14.69 396.019 19.11C424.389 29.11 452.679 39.35 481.139 49.09C482.599 49.57 483.889 50.15 485.009 50.83Z" fill="#01F1EA"/>
</svg>
