<svg width="18" height="13" viewBox="0 0 18 13" fill="none" xmlns="http://www.w3.org/2000/svg">
<path d="M6.41997 12.4138L1.15996 7.15384C1.08479 7.07869 1.02516 6.98947 0.984476 6.89127C0.943792 6.79307 0.922852 6.68782 0.922852 6.58153C0.922852 6.47524 0.943792 6.36999 0.984476 6.27179C1.02516 6.17359 1.08479 6.08437 1.15996 6.00922L2.30766 4.86538C2.3828 4.7902 2.47203 4.73057 2.57022 4.68989C2.66842 4.6492 2.77367 4.62826 2.87996 4.62826C2.98626 4.62826 3.09151 4.6492 3.18971 4.68989C3.2879 4.73057 3.37713 4.7902 3.45227 4.86538L6.99535 8.40845L14.5846 0.819221C14.6597 0.744049 14.7489 0.684417 14.8471 0.643732C14.9453 0.603048 15.0506 0.582108 15.1569 0.582108C15.2632 0.582108 15.3684 0.603048 15.4666 0.643732C15.5648 0.684417 15.654 0.744049 15.7292 0.819221L16.8692 1.96384C16.9444 2.03898 17.004 2.1282 17.0447 2.2264C17.0854 2.3246 17.1063 2.42985 17.1063 2.53614C17.1063 2.64244 17.0854 2.74769 17.0447 2.84589C17.004 2.94408 16.9444 3.0333 16.8692 3.10845L7.5615 12.4161C7.40956 12.5667 7.20417 12.651 6.99026 12.6506C6.77634 12.6501 6.5713 12.565 6.41997 12.4138Z" fill="#FF004E"/>
</svg>
