<svg width="16" height="16" viewBox="0 0 16 16" fill="none" xmlns="http://www.w3.org/2000/svg">
<g clip-path="url(#clip0_532_1492)">
<path d="M9.13728 13.933C9.02893 14.1198 8.87341 14.2748 8.68629 14.3826C8.49917 14.4904 8.28702 14.5471 8.07108 14.5471C7.85514 14.5471 7.64299 14.4904 7.45587 14.3826C7.26876 14.2748 7.11323 14.1198 7.00488 13.933" stroke="white" stroke-linecap="round" stroke-linejoin="round"/>
<path d="M12.1568 9.00264C11.8826 7.99894 11.7519 6.96148 11.7685 5.92114" stroke="white" stroke-linecap="round" stroke-linejoin="round"/>
<path d="M4.53355 4.84877C4.42648 5.19612 4.37246 5.55765 4.37331 5.92113C4.37331 10.2352 2.52441 11.4678 2.52441 11.4678H11.1526" stroke="white" stroke-linecap="round" stroke-linejoin="round"/>
<path d="M11.7686 5.92115C11.7696 5.25127 11.5886 4.5937 11.245 4.01869C10.9013 3.44367 10.4079 2.97281 9.8175 2.65639C9.22706 2.33997 8.56176 2.18988 7.89266 2.22216C7.22356 2.25444 6.57579 2.46787 6.01855 2.83965" stroke="white" stroke-linecap="round" stroke-linejoin="round"/>
<path d="M2.41553 0.990723L15.9741 14.5493" stroke="white" stroke-linecap="round" stroke-linejoin="round"/>
</g>
<defs>
<clipPath id="clip0_532_1492">
<rect width="14.7912" height="14.7912" fill="white" transform="translate(0.675293 0.990723)"/>
</clipPath>
</defs>
</svg>
