<svg width="69" height="69" viewBox="0 0 69 69" fill="none" xmlns="http://www.w3.org/2000/svg">
<path d="M66.125 20.125V2.875H48.875" stroke="#FF004E" stroke-width="2" stroke-linecap="round" stroke-linejoin="round"/>
<path d="M46 23L66.125 2.875" stroke="#FF004E" stroke-width="2" stroke-linecap="round" stroke-linejoin="round"/>
<path d="M63.2496 48.6452V57.2702C63.2529 58.0709 63.0889 58.8634 62.7681 59.5971C62.4473 60.3307 61.9769 60.9893 61.3868 61.5306C60.7968 62.0719 60.1003 62.484 59.3418 62.7405C58.5833 62.997 57.7796 63.0923 56.9821 63.0202C48.1353 62.0589 39.6372 59.0359 32.1709 54.1939C25.2244 49.7799 19.335 43.8904 14.9209 36.9439C10.0621 29.4437 7.03832 20.9043 6.09462 12.0177C6.02278 11.2227 6.11726 10.4214 6.37206 9.66486C6.62686 8.90834 7.03639 8.21317 7.57458 7.6236C8.11276 7.03403 8.76781 6.56298 9.49802 6.24044C10.2282 5.9179 11.0176 5.75094 11.8159 5.75019H20.4409C21.8361 5.73645 23.1888 6.23054 24.2467 7.14034C25.3046 8.05015 25.9956 9.3136 26.1909 10.6952C26.5549 13.4554 27.23 16.1655 28.2034 18.7739C28.5902 19.803 28.6739 20.9213 28.4446 21.9965C28.2153 23.0716 27.6826 24.0585 26.9096 24.8402L23.2584 28.4914C27.3511 35.6891 33.3107 41.6487 40.5084 45.7414L44.1596 42.0902C44.9413 41.3172 45.9282 40.7845 47.0033 40.5552C48.0785 40.3259 49.1968 40.4096 50.2259 40.7964C52.8343 41.7698 55.5444 42.4449 58.3046 42.8089C59.7012 43.006 60.9767 43.7094 61.8884 44.7855C62.8002 45.8616 63.2846 47.2352 63.2496 48.6452Z" stroke="#FF004E" stroke-width="2" stroke-linecap="round" stroke-linejoin="round"/>
</svg>
