<svg width="1784" height="1784" viewBox="0 0 1784 1784" fill="none" xmlns="http://www.w3.org/2000/svg">
<g clip-path="url(#clip0_267_2392)">
<path d="M891.86 1783.72C1384.42 1783.72 1783.72 1384.42 1783.72 891.86C1783.72 399.299 1384.42 0 891.86 0C399.299 0 0 399.299 0 891.86C0 1384.42 399.299 1783.72 891.86 1783.72Z" fill="#051B34"/>
<path d="M1232.27 721.09L1232.14 722.4C1231.41 773.78 1232.15 803.68 1231.47 857.85C1231.23 865.18 1231.24 872.59 1228.97 879.67C1225.54 890.43 1217.8 894.52 1206.78 891.61C1200 889.82 1194.13 886.09 1188.14 882.69C1141.56 856.27 1095.28 829.33 1048.4 803.46C1023.33 789.63 1012.28 768.25 1011.23 741.04C1008.3 665.04 1009.91 588.99 1009.67 512.96C1009.66 508.41 1013.06 504.58 1017.58 504.07C1058.43 499.41 1099.26 494.61 1140.1 489.91C1154.47 488.26 1168.8 486.03 1183.3 485.71C1219 484.92 1231.67 503.85 1232.16 539.68C1232.53 566.25 1232.72 593.75 1232.16 620.33C1231.87 634.16 1232.38 647.29 1232.16 661.11C1231.94 674.93 1232.16 688.53 1232.16 702.35C1232.15 707.44 1232.6 719.14 1232.27 721.09Z" fill="#01F1EA"/>
<path d="M562.379 611.65C562.369 611.61 562.349 611.58 562.349 611.54C562.349 575.89 562.349 549.7 562.349 495.66C562.349 487.07 562.349 460.72 562.349 446.9C562.349 435.98 571.339 433.3 586.219 440.26C601.439 445.37 667.289 478.6 689.709 487.28C722.109 499.83 737.159 525.84 744.969 558.54C747.099 567.44 747.459 572.34 747.479 588.34C747.489 597.42 747.249 733.05 747.479 796.43C747.499 802.25 745.669 803.93 740.159 804.96C690.259 814.23 640.459 824.06 590.399 832.48C570.649 835.8 562.049 829.6 562.149 809.04C562.359 764.09 562.909 741.03 562.359 695.97C562.209 683.87 562.359 650.87 562.359 638.76C561.939 638.75 562.719 612.93 562.379 611.65Z" fill="#FE014E"/>
<path d="M797.199 854.95C797.189 852.09 799.019 850.01 802.619 849.43C835.239 844.24 867.339 836.21 900.099 831.8C933.139 827.36 966.059 826.86 998.389 836.4C1016.55 841.76 1032.32 852.35 1048.8 861.23C1081.08 878.63 1112.87 896.95 1145.06 914.52C1155.46 921.7 1163.41 921.61 1162.41 938.05C1161.59 951.62 1153.86 951.64 1130.67 957.72C1106.37 963.14 1105.32 962.79 1089.02 966.53C1021.26 978.71 985.949 986.02 918.179 998.19C898.229 1001.77 878.369 1006.43 858.129 1007.9C823.829 1010.39 800.219 989.61 797.189 955.36C797.579 935.91 797.249 871.59 797.199 854.95Z" fill="white"/>
<path d="M955.829 617.67C956.539 648.16 954.719 678.68 955.519 709.12C956.589 749.91 923.949 779.65 891.739 785.42C861.979 790.75 832.269 796.34 802.569 801.99C798.439 802.78 797.329 801.74 797.319 797.6C797.239 732.94 796.999 668.3 797.199 603.65C797.259 585.28 801.269 567.58 812.409 552.3C825.439 534.41 844.069 525.42 865.049 522.1C890.159 518.12 898.039 517.56 922.909 514.57C923.119 514.54 940.079 512.86 940.289 512.84C946.889 512.09 952.599 511.1 954.599 515.11C955.899 517.71 955.519 521.72 955.519 526.91C955.609 557.16 955.829 587.39 955.829 617.67Z" fill="#FE014E"/>
<path d="M622.29 410.17C616.69 407.08 614.749 396.16 628.969 394.33C651.269 391.47 667.15 389.72 667.15 389.72C667.15 389.72 742.13 380.96 782.8 376.26C823.46 372.48 864.1 366.46 904.77 362.76C914.88 361.84 924.98 360.35 935.15 360.94C948.68 361.73 953.79 366.98 955.31 380.42C955.32 380.51 955.33 380.61 955.33 380.71C955.6 392.45 955.599 415.72 955.599 415.72C955.599 415.72 955.599 441.98 955.599 454.67C955.729 459.41 954.82 461.14 950.32 462.57C868.49 488.55 787.79 485.03 708.05 453.77C671.79 439.55 622.31 410.17 622.29 410.17Z" fill="#FE014E"/>
<path d="M599.49 892.68C597.67 890.14 599.17 886.55 602.24 885.98C614.49 883.7 626.18 881.53 637.86 879.37C671.81 873.1 705.77 866.85 739.72 860.54C747.69 859.06 747.63 858.96 747.68 867.24C747.89 900.08 749.48 932.91 747.57 965.75C747.48 967.32 747.38 968.88 747.26 970.44C745.92 986.99 726.7 995.57 713.62 985.33C713.55 985.28 713.48 985.22 713.41 985.17C681.36 959.9 663.61 945.94 631.61 920.61C627.43 916.44 603.75 898.63 599.49 892.68Z" fill="white"/>
<path d="M1191.65 426.76C1197.13 430.1 1195.22 438.52 1188.84 439.28C1174.15 441.03 1159.48 442.79 1144.8 444.54C1102.55 449.57 1060.29 454.5 1018.06 459.69C1004.51 461.36 1004.53 461.67 1004.55 447.83C1004.57 428.37 1004.6 408.91 1004.65 389.46C1004.66 387.3 1004.64 385.12 1004.9 382.98C1006.5 369.66 1014.47 364.47 1027.13 368.72C1043.5 374.21 1059.82 379.83 1076.11 385.57C1112.95 398.55 1149.68 411.85 1186.63 424.49C1188.52 425.13 1190.19 425.87 1191.65 426.76Z" fill="#01F1EA"/>
<path d="M415.659 1174.61H452.789C458.379 1174.61 463.189 1178.56 464.279 1184.05L486.249 1295.2C488.679 1307.5 506.129 1307.89 509.109 1295.71L536.549 1183.53C537.829 1178.29 542.529 1174.6 547.919 1174.6H592.939C598.379 1174.6 603.099 1178.34 604.339 1183.63L630.419 1294.67C633.299 1306.92 650.839 1306.63 653.299 1294.29L675.309 1184.02C676.399 1178.54 681.209 1174.6 686.789 1174.6H724.169C731.839 1174.6 737.429 1181.84 735.499 1189.26L679.809 1402.91C678.469 1408.07 673.809 1411.67 668.479 1411.67H616.829C611.429 1411.67 606.719 1407.97 605.449 1402.72L580.979 1301.77C578.099 1289.89 561.219 1289.82 558.239 1301.68L532.849 1402.81C531.539 1408.02 526.859 1411.67 521.489 1411.67H469.829C464.469 1411.67 459.799 1408.03 458.479 1402.84L404.309 1189.19C402.429 1181.8 408.029 1174.61 415.659 1174.61Z" fill="white"/>
<path d="M767.809 1174.61H802.139C808.609 1174.61 813.849 1179.85 813.849 1186.32V1316.45C813.849 1344.48 827.699 1360.69 855.049 1360.69C882.399 1360.69 896.919 1344.48 896.919 1316.45V1186.32C896.919 1179.85 902.159 1174.61 908.629 1174.61H942.959C949.429 1174.61 954.669 1179.85 954.669 1186.32V1316.11C954.669 1381.62 908.739 1414.04 854.039 1414.04C798.999 1414.04 756.109 1381.62 756.109 1316.11V1186.32C756.109 1179.85 761.349 1174.61 767.809 1174.61Z" fill="white"/>
<path d="M1115.09 1174.61H1064.65C1059.72 1174.61 1055.32 1177.7 1053.64 1182.33L976.329 1395.99C973.569 1403.62 979.219 1411.68 987.339 1411.68H1022.7C1027.72 1411.68 1032.19 1408.47 1033.79 1403.71L1078.46 1271.26C1082.04 1260.64 1097.05 1260.64 1100.64 1271.25L1118.91 1325.22H1118.8L1145.27 1403.71C1146.88 1408.47 1151.34 1411.68 1156.36 1411.68H1192.39C1200.51 1411.68 1206.16 1403.62 1203.4 1395.99L1126.09 1182.33C1124.42 1177.7 1120.02 1174.61 1115.09 1174.61Z" fill="white"/>
<path d="M1196.77 1174.61H1235.57C1240.13 1174.61 1244.28 1177.26 1246.2 1181.4L1278.32 1250.84C1282.52 1259.91 1295.41 1259.89 1299.59 1250.81L1331.45 1181.43C1333.36 1177.27 1337.51 1174.61 1342.09 1174.61H1380.19C1388.96 1174.61 1394.62 1183.9 1390.59 1191.69L1318.67 1330.79C1317.81 1332.45 1317.36 1334.3 1317.36 1336.17V1399.96C1317.36 1406.43 1312.12 1411.67 1305.65 1411.67H1271.32C1264.85 1411.67 1259.61 1406.43 1259.61 1399.96V1336.17C1259.61 1334.3 1259.16 1332.46 1258.3 1330.79L1186.38 1191.69C1182.34 1183.9 1187.99 1174.61 1196.77 1174.61Z" fill="white"/>
</g>
<defs>
<clipPath id="clip0_267_2392">
<rect width="1783.72" height="1783.72" fill="white"/>
</clipPath>
</defs>
</svg>
