<svg width="49" height="35" viewBox="0 0 49 35" fill="none" xmlns="http://www.w3.org/2000/svg">
<g clip-path="url(#clip0_600_1110)">
<path d="M10.6366 29.2664C11.0645 20.3202 14.2752 12.9531 22.0714 8.01982C22.0082 7.96633 21.945 7.91162 21.883 7.85813C21.1815 8.13409 20.4594 8.36629 19.7822 8.69209C17.2305 9.91994 14.945 11.5137 13.0801 13.6728C10.7083 16.419 9.25072 19.6224 8.47876 23.1308C8.04233 25.1124 7.79433 27.1353 7.45029 29.2129C6.35981 29.2129 5.14048 29.2129 3.92114 29.2129C2.92427 19.9907 9.12308 8.1815 21.9814 6.35432C21.1317 5.3611 20.7609 4.2682 21.1013 2.99902C21.3031 2.24529 21.7152 1.63866 22.3352 1.17792C23.6579 0.194424 25.451 0.267365 26.6278 1.3396C28.0708 2.65498 28.1389 4.21836 26.8551 6.31299C27.993 6.58287 29.1552 6.79562 30.2773 7.13723C33.1147 7.99915 35.6288 9.44461 37.8437 11.4274C40.4368 13.7494 42.3114 16.5576 43.5526 19.7901C44.6759 22.7151 45.0552 25.7604 44.9349 28.8823C44.9178 29.326 44.6893 29.3029 44.389 29.3029C42.2628 29.2993 40.1353 29.3029 38.0091 29.3005C29.0774 29.2907 20.1445 29.2786 11.2128 29.2676C11.0341 29.2664 10.8554 29.2664 10.6366 29.2664Z" fill="white"/>
<path d="M0.0908203 34.7577C0.0908203 33.339 0.0908203 31.9689 0.0908203 30.5587C16.2777 30.5587 32.4476 30.5587 48.6625 30.5587C48.6625 31.9422 48.6625 33.3268 48.6625 34.7577C32.4817 34.7577 16.3166 34.7577 0.0908203 34.7577Z" fill="white"/>
</g>
<defs>
<clipPath id="clip0_600_1110">
<rect width="48.5717" height="34.2727" fill="white" transform="translate(0.0908203 0.484863)"/>
</clipPath>
</defs>
</svg>
