<svg width="39" height="37" viewBox="0 0 39 37" fill="none" xmlns="http://www.w3.org/2000/svg">
<path d="M25.2972 8.22778C28.3013 7.86189 31.3053 7.4777 34.3273 7.1484C36.8128 6.87398 38.136 8.08143 38.0824 10.6976C38.0288 14.3382 37.8857 17.9605 37.7784 21.6011C37.7069 24.016 37.6175 26.4126 37.546 28.8275C37.4923 30.2545 36.7771 30.6936 35.5432 29.9618C32.7537 28.3519 29.9642 26.7053 27.1926 25.0771C25.8515 24.2905 25.4045 22.8818 25.3687 21.4914C25.2257 17.119 25.2972 12.7466 25.2972 8.22778Z" fill="white"/>
<path d="M10.7602 25.7909C7.75607 26.3763 4.78775 26.9801 1.80155 27.4923C0.728668 27.6753 0.531973 26.7971 0.514091 25.9739C0.424684 23.7419 0.37104 21.51 0.299514 19.278C0.192225 15.4727 0.102818 11.6675 0.0134111 7.86219C-0.00447036 7.478 -0.00447036 7.07552 0.0134111 6.69133C0.156463 4.56916 0.657143 4.27644 2.49893 5.22776C4.10826 6.05102 5.64606 7.02064 7.32692 7.66095C9.83032 8.59397 10.5277 10.5881 10.7065 12.9847C10.778 13.8994 10.7602 14.8141 10.7602 15.7472C10.7602 19.0219 10.7602 22.2966 10.7602 25.7909Z" fill="white"/>
<path d="M13.6204 27.8947C16.9285 27.3642 20.1113 26.2848 23.4552 26.8336C24.1168 26.9434 24.8142 27.0897 25.4043 27.4007C27.9792 28.7911 30.5183 30.2181 33.0217 31.7183C33.4688 31.9927 33.737 32.5964 34.0946 33.0355C33.6118 33.3648 33.1469 33.8953 32.6105 33.9868C27.5321 34.993 22.4538 35.9443 17.3576 36.8408C15.1582 37.225 13.674 35.9626 13.6204 33.6941C13.5846 31.828 13.6204 29.9437 13.6204 27.8947Z" fill="white"/>
<path d="M22.3113 8.59393C22.3113 12.6553 22.3829 16.4972 22.2756 20.3391C22.2219 22.1868 20.6662 23.815 18.9139 24.1992C17.1972 24.5651 15.4806 24.8578 13.5494 25.2237C13.5494 24.0163 13.5494 22.9003 13.5494 21.7843C13.5316 19.2963 13.5137 16.7899 13.5137 14.3019C13.5137 11.1552 14.8905 9.52696 17.9304 9.10618C19.343 8.92324 20.7378 8.77688 22.3113 8.59393Z" fill="white"/>
<path d="M2.55273 1.97125C3.89384 1.75171 4.96673 1.51388 6.03961 1.40411C10.814 0.928454 15.5883 0.471088 20.3448 0.0320167C22.0077 -0.11434 22.3117 0.196668 22.3296 1.89807C22.3296 3.21528 22.3296 4.5142 22.3296 5.68506C15.177 8.15484 8.82912 6.30708 2.55273 1.97125Z" fill="white"/>
<path d="M2.41016 29.9987C5.43212 29.4316 8.04281 28.9376 10.7966 28.4071C10.7966 30.6208 10.9038 32.7429 10.7608 34.8468C10.6535 36.1823 9.93824 36.4018 8.93688 35.6152C7.07721 34.1333 5.25331 32.6515 3.4294 31.133C3.16118 30.8952 2.9466 30.5842 2.41016 29.9987Z" fill="white"/>
<path d="M35.7942 4.40451C32.2 4.84359 28.731 5.26436 25.0117 5.72173C25.0117 4.14839 24.9759 2.758 25.0296 1.36761C25.0474 0.61753 25.4945 0.178459 26.2276 0.434583C29.339 1.53226 32.4325 2.66653 35.526 3.80079C35.5796 3.83738 35.5975 3.96544 35.7942 4.40451Z" fill="white"/>
</svg>
