<svg width="22" height="22" viewBox="0 0 22 22" fill="none" xmlns="http://www.w3.org/2000/svg">
<g clip-path="url(#clip0_204_4338)">
<path d="M19.1527 9.15C19.1527 15.3827 11.3405 20.725 11.3405 20.725C11.3405 20.725 3.52832 15.3827 3.52832 9.15C3.52832 7.0247 4.35139 4.98644 5.81646 3.48362C7.28152 1.98081 9.26858 1.13654 11.3405 1.13654C13.4124 1.13654 15.3995 1.98081 16.8645 3.48362C18.3296 4.98644 19.1527 7.0247 19.1527 9.15Z" stroke="#FF004E" stroke-width="2" stroke-linecap="round" stroke-linejoin="round"/>
<path d="M11.3404 11.8211C12.7786 11.8211 13.9445 10.6252 13.9445 9.14997C13.9445 7.67474 12.7786 6.47882 11.3404 6.47882C9.90221 6.47882 8.73633 7.67474 8.73633 9.14997C8.73633 10.6252 9.90221 11.8211 11.3404 11.8211Z" stroke="#FF004E" stroke-width="2" stroke-linecap="round" stroke-linejoin="round"/>
</g>
<defs>
<clipPath id="clip0_204_4338">
<rect width="20.8325" height="21.3692" fill="white" transform="translate(0.923828 0.246155)"/>
</clipPath>
</defs>
</svg>
