<svg width="28" height="20" viewBox="0 0 28 20" fill="none" xmlns="http://www.w3.org/2000/svg">
<path d="M9.98909 0.638428C11.7619 0.71154 13.4722 0.960578 15.0753 1.70998C16.1655 2.21948 17.134 2.90098 17.9126 3.82533C18.1546 4.11288 18.3662 4.44123 18.5216 4.78297C18.6977 5.17072 18.9602 5.33131 19.3686 5.33424C20.1364 5.33979 20.8945 5.44032 21.6386 5.6293C23.1222 6.00596 24.4603 6.66201 25.5492 7.76098C26.4506 8.67063 26.9957 9.75752 27.0192 11.0582C27.043 12.398 26.5115 13.5231 25.5899 14.468C24.8045 15.2736 23.8767 15.8643 22.8086 16.2273C22.4872 16.3363 22.4169 16.4913 22.5263 16.8158C22.6181 17.0886 22.7022 17.3641 22.792 17.6376C22.8972 17.9575 23.0568 18.2421 23.3069 18.4748C23.4804 18.6364 23.5084 18.8384 23.4088 19.0398C23.3098 19.2402 23.1063 19.3662 22.8897 19.3303C21.7604 19.143 20.6506 18.8841 19.6698 18.2588C19.3292 18.0414 18.9967 17.791 18.7189 17.4999C18.3021 17.0632 17.8146 16.838 17.2258 16.7551C16.0451 16.5883 14.9193 16.2433 13.8874 15.6264C13.1713 15.1982 12.5538 14.6577 12.0296 14.0091C11.6772 13.5734 11.1331 13.5704 10.7573 14.0006C10.6 14.1805 10.446 14.3642 10.2757 14.5307C9.43713 15.3506 8.41103 15.8291 7.29734 16.1323C6.7851 16.2717 6.2618 16.3699 5.74337 16.4851C5.69095 16.4969 5.63559 16.4979 5.58153 16.4998C5.38093 16.5067 5.21909 16.4378 5.12368 16.2514C5.02468 16.0582 5.0237 15.8542 5.17611 15.7037C5.70592 15.1812 5.89838 14.5046 6.07553 13.8169C6.1094 13.6853 6.15238 13.5564 6.19178 13.4265C6.25105 13.2303 6.21816 13.1592 6.02473 13.0926C5.32362 12.8517 4.66159 12.5279 4.03734 12.1294C2.96076 11.442 2.06753 10.5764 1.50254 9.41187C0.578367 7.50574 0.889681 5.40213 2.35084 3.75483C3.51989 2.43685 4.99114 1.60292 6.67438 1.12802C7.76659 0.820229 8.88484 0.686408 9.98909 0.638428ZM6.61349 15.3124C6.62684 15.3271 6.64052 15.3415 6.65387 15.3561C7.12637 15.1832 7.60311 15.0216 8.07009 14.8352C8.90992 14.4997 9.62535 14.0013 10.1213 13.2206C10.2988 12.9412 10.5743 12.8093 10.8993 12.775C11.1904 12.7443 11.4825 12.7186 11.7723 12.6771C13.2979 12.4591 14.7031 11.9395 15.9288 10.9825C16.6641 10.4083 17.3072 9.74903 17.713 8.89519C18.5372 7.16074 18.1386 5.19683 16.6836 3.88604C15.625 2.93232 14.3618 2.35003 13.0023 1.97566C10.9504 1.41035 8.89884 1.50141 6.86195 2.05954C5.39038 2.46264 4.10605 3.19278 3.09135 4.35376C2.44951 5.08814 2.03008 5.92958 1.95616 6.91692C1.8653 8.13241 2.29776 9.16936 3.07962 10.0702C4.02919 11.1643 5.23212 11.8595 6.60958 12.2714C7.26575 12.4676 7.39926 12.7581 7.18792 13.4112C6.98407 14.0405 6.80399 14.6782 6.61349 15.3124ZM21.9245 18.1706C21.903 18.0792 21.892 18.0215 21.8757 17.9653C21.7278 17.4486 21.5816 16.9313 21.4295 16.4156C21.3025 15.9854 21.4107 15.7442 21.8249 15.5709C21.9346 15.5249 22.0499 15.4916 22.1629 15.4537C23.203 15.1078 24.1337 14.5823 24.9097 13.795C26.391 12.292 26.4627 10.2458 25.0774 8.65758C24.4007 7.88174 23.5667 7.32426 22.6175 6.93749C21.6585 6.54679 20.6535 6.36271 19.6274 6.27132C19.1735 6.23085 19.1312 6.26871 19.1631 6.71554C19.2057 7.31153 19.1501 7.89969 18.9999 8.47773C18.6808 9.70432 17.9504 10.6551 17.0103 11.4688C16.0428 12.3063 14.9284 12.8752 13.732 13.2986C13.437 13.403 13.1449 13.5166 12.8212 13.6374C12.929 13.7314 13.0114 13.8087 13.0993 13.8782C13.2224 13.9762 13.3536 14.064 13.4751 14.1642C14.0446 14.6348 14.6715 15.0082 15.3537 15.2892C16.3176 15.6865 17.3268 15.8738 18.3617 15.9394C18.6424 15.957 18.8527 16.0716 18.9954 16.3262C19.2168 16.7218 19.5314 17.0345 19.9052 17.2884C20.5145 17.7023 21.2068 17.9239 21.9245 18.1706Z" fill="#FF004E"/>
<path d="M9.91875 6.74917C8.10135 6.74917 6.28426 6.74917 4.46686 6.74884C4.39098 6.74884 4.31478 6.7495 4.23923 6.74297C3.93899 6.71686 3.79148 6.56247 3.78626 6.27329C3.78138 5.99945 3.91196 5.85453 4.20667 5.81438C4.29231 5.80263 4.37958 5.80035 4.4662 5.80035C8.12251 5.79969 11.7788 5.79969 15.4348 5.80002C15.4999 5.80002 15.5654 5.79839 15.6299 5.80524C16.0004 5.84441 16.1603 6.08627 16.0555 6.44726C16.0157 6.58369 15.9255 6.67769 15.7894 6.70739C15.6689 6.73383 15.5432 6.74721 15.4198 6.74721C13.5858 6.74982 11.7521 6.74917 9.91875 6.74917Z" fill="#FF004E"/>
<path d="M10.0156 9.0058C8.34505 9.0058 6.67451 9.0058 5.00396 9.00548C4.96619 9.00548 4.92809 9.00352 4.89031 9.00123C4.50768 8.97937 4.33314 8.70944 4.466 8.34584C4.52103 8.19537 4.63729 8.12291 4.78774 8.10953C4.91702 8.0981 5.0476 8.10072 5.17753 8.10072C7.7755 8.10039 10.3738 8.10039 12.9718 8.10039C13.6875 8.10039 14.4036 8.09941 15.1194 8.10104C15.1949 8.10104 15.2718 8.10724 15.3454 8.12389C15.5824 8.17774 15.6811 8.31581 15.6753 8.57431C15.67 8.81258 15.558 8.95293 15.319 8.98328C15.1422 9.0058 14.9621 9.0058 14.7833 9.00613C13.1942 9.00776 11.6051 9.00711 10.0156 9.00711C10.0156 9.00678 10.0156 9.00646 10.0156 9.0058Z" fill="#FF004E"/>
</svg>
