<svg width="39" height="39" viewBox="0 0 39 39" fill="none" xmlns="http://www.w3.org/2000/svg">
<rect width="39" height="39" fill="white"/>
<path d="M14.7469 18.6236C13.1343 18.6236 11.6111 18.6899 10.099 18.6011C9.0593 18.5402 8.01179 18.3339 7.00672 18.0603C6.1982 17.8402 5.91677 17.2865 5.9849 16.5533C6.06084 15.7346 6.74317 15.1457 7.60195 15.2141C8.70865 15.3018 9.81088 15.5016 10.9176 15.5241C12.3035 15.5529 13.6927 15.4631 15.0786 15.3947C15.4203 15.3776 15.7531 15.2334 16.0948 15.166C16.5449 15.0773 16.9983 14.9512 17.4528 14.9416C18.88 14.9127 20.3094 14.8978 21.7355 14.9491C22.2503 14.9672 22.7573 15.1895 23.2688 15.3167C23.4441 15.3605 23.6184 15.4129 23.7959 15.4396C26.3142 15.8073 28.8224 15.6406 31.3273 15.3071C32.205 15.1906 32.8617 15.5882 33.0783 16.3364C33.3173 17.1636 33.0124 17.7611 32.1548 18.1384C31.0123 18.6407 29.7795 18.6706 28.5622 18.7134C27.3784 18.755 26.1913 18.6899 25.0054 18.6728C24.7865 18.6695 24.5687 18.6728 24.2784 18.6728C24.2784 19.8933 24.2862 21.0904 24.2728 22.2885C24.2694 22.6038 24.2504 22.9319 24.1544 23.229C23.8518 24.16 23.1884 24.7799 22.1576 24.8173C20.4736 24.8793 18.7828 24.8964 17.0999 24.8237C15.7084 24.7638 14.7826 23.7143 14.7503 22.3227C14.7268 21.2967 14.7447 20.2695 14.7447 19.2424C14.7458 19.0511 14.7469 18.8598 14.7469 18.6236ZM15.6749 17.7087C15.6749 19.22 15.6705 20.7227 15.676 22.2254C15.6805 23.4214 16.2512 23.9697 17.5142 23.9793C18.8867 23.989 20.2581 23.9868 21.6305 23.9804C22.7975 23.9751 23.3637 23.4332 23.3693 22.3141C23.376 20.9514 23.3704 19.5887 23.3727 18.2249C23.3727 18.0411 23.3883 17.8573 23.3939 17.7418C25.0757 17.7824 26.6872 17.8818 28.2953 17.8412C29.3975 17.8134 30.4975 17.6125 31.5908 17.4458C31.9471 17.3913 32.3569 17.2395 32.2084 16.7446C32.0811 16.3193 31.7706 16.1963 31.3061 16.269C28.6359 16.6859 25.9568 16.6965 23.2744 16.3951C23.1527 16.3812 23.0365 16.3214 22.9159 16.2883C22.534 16.1835 22.1431 15.9687 21.7713 15.9965C19.8426 16.1408 17.9241 15.7688 15.9619 16.3299C14.2946 16.8066 12.4542 16.8494 10.6652 16.6271C9.71037 16.5084 8.75108 16.4315 7.79515 16.3171C7.39088 16.269 7.10388 16.3438 6.98885 16.7607C6.87159 17.1861 7.10835 17.3923 7.47911 17.5174C7.67007 17.5815 7.86662 17.6424 8.0654 17.6734C10.5714 18.0678 13.0785 18.0304 15.6749 17.7087Z" fill="#FF004E"/>
<path d="M6.42485 24.3969C5.87541 24.6662 5.40079 24.9612 4.8815 25.1354C4.31754 25.3246 3.82394 25.0777 3.44983 24.6588C3.05115 24.212 2.84567 23.668 3.13714 23.1336C3.94902 21.649 4.82008 20.1933 5.69114 18.6831C5.97591 18.8199 6.21713 18.9364 6.51977 19.0828C6.39023 19.3169 6.27409 19.5296 6.15683 19.7401C5.50018 20.9083 4.8413 22.0755 4.188 23.2447C3.90211 23.7567 3.9747 24.0549 4.41693 24.2644C4.86698 24.4781 5.22323 24.3338 5.47226 23.8176C5.7414 23.2586 5.9949 22.6932 6.28749 22.0616C6.44272 22.4335 6.57002 22.7242 6.68505 23.0192C6.91287 23.6028 7.36292 23.8924 8.0017 23.8978C9.2625 23.9074 10.5244 23.9159 11.7852 23.8946C12.7066 23.8796 13.2124 23.3666 13.2214 22.4795C13.2314 21.5079 13.2236 20.5353 13.2236 19.5264C13.5307 19.5264 13.7987 19.5264 14.0645 19.5264C14.0645 20.7149 14.1594 21.9184 14.0355 23.1005C13.9305 24.1008 12.9723 24.7614 11.907 24.7742C10.5725 24.7902 9.23459 24.8159 7.90231 24.7603C7.37185 24.7389 6.85033 24.507 6.42485 24.3969Z" fill="#FF004E"/>
<path d="M32.7001 24.1636C32.1294 24.6627 31.4415 24.7044 30.7301 24.6948C29.562 24.6798 28.3928 24.7033 27.2246 24.6852C26.0398 24.667 25.0961 23.8836 25.0258 22.7677C24.9576 21.6776 25.0113 20.581 25.0113 19.4491C25.286 19.4491 25.5317 19.4491 25.8321 19.4491C25.8321 20.457 25.8298 21.4446 25.8332 22.4311C25.8365 23.3128 26.348 23.8087 27.2771 23.8152C28.4642 23.8237 29.6513 23.8184 30.8384 23.8173C31.714 23.8162 32.0725 23.5832 32.3974 22.8126C32.4991 22.5722 32.6051 22.3327 32.7526 21.9939C33.0317 22.5967 33.2618 23.1055 33.5019 23.611C33.7453 24.123 34.2099 24.3677 34.5796 24.1871C35.0039 23.9787 35.0854 23.5116 34.7862 22.9868C34.0603 21.7139 33.3321 20.442 32.6063 19.168C32.5806 19.1221 32.5683 19.0697 32.5381 18.9874C32.7972 18.8623 33.0552 18.7384 33.3388 18.6016C34.1608 20.0669 34.9827 21.4905 35.7611 22.9355C36.1598 23.6773 35.8772 24.6349 35.1703 24.9823C34.4757 25.3243 33.5142 25.2645 32.9368 24.5045C32.8609 24.4083 32.795 24.3025 32.7001 24.1636Z" fill="#FF004E"/>
<path d="M19.6174 8.00009C21.46 8.01291 22.9565 9.48358 22.9241 11.2492C22.8928 12.939 21.3428 14.3701 19.5683 14.3466C17.7267 14.3231 16.2448 12.8556 16.2739 11.0846C16.3007 9.3596 17.7882 7.98726 19.6174 8.00009ZM19.5951 8.87864C18.3075 8.88078 17.2142 9.90896 17.1974 11.1327C17.1795 12.4463 18.2371 13.4723 19.604 13.467C20.9474 13.4617 22.024 12.4367 22.0072 11.1787C21.9905 9.91538 20.9005 8.8765 19.5951 8.87864Z" fill="#FF004E"/>
<path d="M7.23992 12.0059C7.25779 10.3898 8.64368 9.1308 10.3758 9.15538C12.0453 9.1789 13.3742 10.4914 13.3619 12.1053C13.3508 13.7117 11.9292 15.0327 10.2451 15.0006C8.54764 14.9686 7.22206 13.6475 7.23992 12.0059ZM10.3009 10.0243C9.16967 10.02 8.15677 10.9734 8.15007 12.0486C8.14337 13.157 9.15291 14.1317 10.3054 14.1274C11.4657 14.1232 12.4429 13.204 12.4529 12.1085C12.4618 11.0044 11.4545 10.0286 10.3009 10.0243Z" fill="#FF004E"/>
<path d="M28.9349 9.15671C30.6424 9.1674 31.968 10.466 31.9591 12.1173C31.9501 13.7002 30.562 15.0073 28.8925 15.003C27.2028 14.9988 25.8359 13.6788 25.8359 12.0489C25.8348 10.435 27.2174 9.14602 28.9349 9.15671ZM28.9282 10.0267C27.7366 10.015 26.7584 10.9277 26.7517 12.0585C26.745 13.1946 27.7065 14.1245 28.8925 14.1288C30.0539 14.133 31.0333 13.2246 31.0512 12.129C31.069 11.0175 30.0807 10.0385 28.9282 10.0267Z" fill="#FF004E"/>
</svg>
